<svg width="40" height="40" viewBox="0 0 40 40" fill="none" xmlns="http://www.w3.org/2000/svg">
<g clip-path="url(#clip0_9489_6282)">
<path fill-rule="evenodd" clip-rule="evenodd" d="M20.1402 12.9098C19.426 13.2567 18.5209 13.8516 17.2311 14.7021L17.0122 14.8464C16.9955 14.8574 16.9791 14.8682 16.9628 14.8789C16.5826 15.1297 16.3193 15.3034 16.0308 15.4308C15.7464 15.5563 15.4476 15.6459 15.1411 15.6977C14.8301 15.7502 14.5146 15.7501 14.0592 15.75C14.0397 15.75 14.02 15.75 14.0001 15.75C12.5564 15.75 12.0691 15.7663 11.6548 15.958C11.2544 16.1432 10.828 16.5444 10.6188 16.9328C10.4005 17.3379 10.3605 17.7531 10.2834 19.0173C10.2623 19.3642 10.25 19.6968 10.25 20C10.25 20.3033 10.2623 20.6358 10.2834 20.9828C10.3605 22.247 10.4005 22.6622 10.6188 23.0673C10.828 23.4556 11.2544 23.8568 11.6548 24.0421C12.0691 24.2338 12.5564 24.25 14.0001 24.25C14.02 24.25 14.0397 24.25 14.0592 24.25C14.5146 24.2499 14.8301 24.2499 15.1411 24.3024C15.4476 24.3541 15.7464 24.4438 16.0308 24.5693C16.3193 24.6966 16.5826 24.8703 16.9628 25.1211C16.979 25.1318 16.9955 25.1427 17.0122 25.1537L17.2311 25.298C18.5209 26.1484 19.426 26.7433 20.1402 27.0903C20.8525 27.4363 21.2087 27.4502 21.4578 27.3651C21.5952 27.3183 21.7297 27.2498 21.8485 27.1664C22.0651 27.0141 22.2626 26.7195 22.4015 25.9482C22.541 25.1733 22.5924 24.1014 22.6635 22.5706C22.7156 21.451 22.75 20.5118 22.75 20C22.75 19.4883 22.7156 18.549 22.6635 17.4295C22.5924 15.8987 22.541 14.8268 22.4015 14.0519C22.2626 13.2805 22.0651 12.986 21.8485 12.8337C21.7297 12.7502 21.5952 12.6818 21.4578 12.6349C21.2087 12.5499 20.8525 12.5638 20.1402 12.9098ZM19.4848 11.5606C20.3108 11.1593 21.1241 10.9361 21.9423 11.2153C22.2142 11.3081 22.4759 11.4413 22.7109 11.6065C23.417 12.1027 23.7159 12.8867 23.8778 13.7861C24.037 14.6705 24.0914 15.8424 24.1592 17.3023L24.1619 17.3598C24.2137 18.4748 24.25 19.448 24.25 20C24.25 20.552 24.2137 21.5253 24.1619 22.6402L24.1592 22.6977C24.0914 24.1576 24.037 25.3296 23.8778 26.2139C23.7159 27.1134 23.417 27.8974 22.7109 28.3936C22.4759 28.5588 22.2142 28.692 21.9423 28.7848C21.1241 29.064 20.3108 28.8408 19.4848 28.4395C18.6712 28.0443 17.6841 27.3934 16.4533 26.5819L16.1865 26.4059C15.7386 26.1106 15.5845 26.0119 15.4251 25.9416C15.2545 25.8663 15.0752 25.8125 14.8913 25.7814C14.7196 25.7524 14.5366 25.75 14.0001 25.75C13.9457 25.75 13.892 25.7501 13.8391 25.7501C12.6222 25.7507 11.7766 25.7512 11.025 25.4034C10.3302 25.082 9.66141 24.4527 9.29828 23.7788C8.90566 23.0501 8.85959 22.2881 8.79409 21.2045C8.79149 21.1615 8.78886 21.1181 8.78618 21.0741C8.76373 20.7058 8.75 20.3416 8.75 20C8.75 19.6585 8.76373 19.2943 8.78618 18.926C8.78886 18.882 8.79149 18.8385 8.79409 18.7955C8.85959 17.712 8.90566 16.95 9.29828 16.2213C9.66141 15.5473 10.3302 14.9181 11.025 14.5966C11.7766 14.2489 12.6221 14.2493 13.8391 14.25C13.892 14.25 13.9457 14.25 14.0001 14.25C14.5366 14.25 14.7196 14.2476 14.8913 14.2186C15.0752 14.1876 15.2545 14.1338 15.4251 14.0585C15.5845 13.9881 15.7386 13.8894 16.1865 13.5941L16.4533 13.4182C17.6841 12.6066 18.6712 11.9558 19.4848 11.5606ZM27.5199 13.4241C27.8381 13.1589 28.311 13.2019 28.5762 13.5201L28 14.0002C28.5762 13.5201 28.5762 13.5201 28.5762 13.5201L28.5773 13.5215L28.5786 13.523L28.5816 13.5266L28.5891 13.5359C28.5948 13.543 28.6018 13.5519 28.6102 13.5627C28.6269 13.5843 28.6486 13.6133 28.6748 13.6499C28.727 13.723 28.7966 13.8264 28.8775 13.9612C29.0394 14.2311 29.2462 14.6262 29.45 15.156C29.8582 16.2174 30.25 17.8087 30.25 20.0002C30.25 22.1918 29.8582 23.7831 29.45 24.8445C29.2462 25.3743 29.0394 25.7694 28.8775 26.0392C28.7966 26.1741 28.727 26.2775 28.6748 26.3506C28.6486 26.3872 28.6269 26.4162 28.6102 26.4378C28.6052 26.4442 28.6007 26.45 28.5966 26.4551C28.5939 26.4586 28.5914 26.4617 28.5891 26.4646L28.5816 26.4739L28.5786 26.4775L28.5773 26.479C28.5773 26.479 28.5762 26.4804 28 26.0002L28.5762 26.4804C28.311 26.7986 27.8381 26.8416 27.5199 26.5764C27.2032 26.3125 27.1591 25.8429 27.42 25.5247M27.42 25.5247C27.42 25.5247 27.4218 25.5224 27.4235 25.5202C27.4288 25.5134 27.4393 25.4996 27.4542 25.4788C27.4839 25.4371 27.5315 25.367 27.5913 25.2675C27.7106 25.0686 27.8788 24.7512 28.05 24.306C28.3918 23.4174 28.75 22.0087 28.75 20.0002C28.75 17.9918 28.3918 16.5831 28.05 15.6945C27.8788 15.2493 27.7106 14.9319 27.5913 14.733C27.5315 14.6335 27.4839 14.5634 27.4542 14.5217C27.4393 14.5009 27.4288 14.4871 27.4235 14.4802C27.4218 14.478 27.42 14.4758 27.42 14.4758L27.4235 14.4802L27.422 14.4781L27.42 14.4758C27.1591 14.1576 27.2032 13.688 27.5199 13.4241M25.6358 16.3446C25.9979 16.1435 26.4545 16.2739 26.6556 16.636L26.0276 16.9849C26.6556 16.636 26.6556 16.636 26.6556 16.636L26.6563 16.6373L26.6571 16.6387L26.6588 16.6418L26.6626 16.6489L26.6723 16.6672C26.6795 16.6813 26.6884 16.6991 26.6986 16.7206C26.7191 16.7636 26.7451 16.8216 26.7745 16.8951C26.8333 17.0423 26.9059 17.2512 26.9765 17.5265C27.1178 18.0774 27.25 18.8901 27.25 20.0002C27.25 21.1104 27.1178 21.9231 26.9765 22.474C26.9059 22.7492 26.8333 22.9582 26.7745 23.1053C26.7451 23.1789 26.7191 23.2369 26.6986 23.2799C26.6884 23.3014 26.6795 23.3192 26.6723 23.3333L26.6626 23.3516L26.6588 23.3587L26.6571 23.3618L26.6563 23.3632C26.6563 23.3632 26.6556 23.3645 26.0276 23.0156L26.6556 23.3645C26.4545 23.7266 25.9979 23.857 25.6358 23.6559C25.2768 23.4564 25.1455 23.0058 25.3393 22.6453L25.3443 22.635C25.3512 22.6206 25.3643 22.5919 25.3818 22.5483C25.4167 22.4611 25.4691 22.3137 25.5235 22.1015C25.6322 21.6774 25.75 20.9901 25.75 20.0002C25.75 19.0104 25.6322 18.3231 25.5235 17.899C25.4691 17.6867 25.4167 17.5394 25.3818 17.4522C25.3643 17.4086 25.3512 17.3799 25.3443 17.3655L25.3393 17.3552C25.1455 16.9946 25.2768 16.5441 25.6358 16.3446Z" fill="white"/>
</g>
<defs>
<clipPath id="clip0_9489_6282">
<rect width="40" height="40" rx="20" fill="white"/>
</clipPath>
</defs>
</svg>
