<svg width="40" height="40" viewBox="0 0 40 40" fill="none" xmlns="http://www.w3.org/2000/svg">
<g clip-path="url(#clip0_9489_6212)">
<path d="M21.75 18C21.75 18.4142 22.0858 18.75 22.5 18.75H23.1893L21.1768 20.7626C21.0791 20.8602 20.9209 20.8602 20.8232 20.7626L19.2374 19.1768C18.554 18.4934 17.446 18.4934 16.7626 19.1768L14.4697 21.4697C14.1768 21.7626 14.1768 22.2374 14.4697 22.5303C14.7626 22.8232 15.2374 22.8232 15.5303 22.5303L17.8232 20.2374C17.9209 20.1398 18.0791 20.1398 18.1768 20.2374L19.7626 21.8232C20.446 22.5066 21.554 22.5066 22.2374 21.8232L24.25 19.8107V20.5C24.25 20.9142 24.5858 21.25 25 21.25C25.4142 21.25 25.75 20.9142 25.75 20.5V18C25.75 17.5858 25.4142 17.25 25 17.25H22.5C22.0858 17.25 21.75 17.5858 21.75 18Z" fill="white"/>
<path fill-rule="evenodd" clip-rule="evenodd" d="M19.9426 9.25C17.6342 9.24999 15.8252 9.24998 14.4137 9.43975C12.969 9.63399 11.8289 10.0393 10.9341 10.9341C10.0393 11.8289 9.63399 12.969 9.43975 14.4137C9.24998 15.8252 9.24999 17.6342 9.25 19.9426V20.0574C9.24999 22.3658 9.24998 24.1748 9.43975 25.5863C9.63399 27.031 10.0393 28.1711 10.9341 29.0659C11.8289 29.9607 12.969 30.366 14.4137 30.5603C15.8252 30.75 17.6342 30.75 19.9426 30.75H20.0574C22.3658 30.75 24.1748 30.75 25.5863 30.5603C27.031 30.366 28.1711 29.9607 29.0659 29.0659C29.9607 28.1711 30.366 27.031 30.5603 25.5863C30.75 24.1748 30.75 22.3658 30.75 20.0574V19.9426C30.75 17.6342 30.75 15.8252 30.5603 14.4137C30.366 12.969 29.9607 11.8289 29.0659 10.9341C28.1711 10.0393 27.031 9.63399 25.5863 9.43975C24.1748 9.24998 22.3658 9.24999 20.0574 9.25H19.9426ZM11.9948 11.9948C12.5645 11.4251 13.3352 11.0982 14.6136 10.9264C15.9136 10.7516 17.6218 10.75 20 10.75C22.3782 10.75 24.0864 10.7516 25.3864 10.9264C26.6648 11.0982 27.4355 11.4251 28.0052 11.9948C28.5749 12.5645 28.9018 13.3352 29.0736 14.6136C29.2484 15.9136 29.25 17.6218 29.25 20C29.25 22.3782 29.2484 24.0864 29.0736 25.3864C28.9018 26.6648 28.5749 27.4355 28.0052 28.0052C27.4355 28.5749 26.6648 28.9018 25.3864 29.0736C24.0864 29.2484 22.3782 29.25 20 29.25C17.6218 29.25 15.9136 29.2484 14.6136 29.0736C13.3352 28.9018 12.5645 28.5749 11.9948 28.0052C11.4251 27.4355 11.0982 26.6648 10.9264 25.3864C10.7516 24.0864 10.75 22.3782 10.75 20C10.75 17.6218 10.7516 15.9136 10.9264 14.6136C11.0982 13.3352 11.4251 12.5645 11.9948 11.9948Z" fill="white"/>
</g>
<defs>
<clipPath id="clip0_9489_6212">
<rect width="40" height="40" rx="20" fill="white"/>
</clipPath>
</defs>
</svg>
