<svg width="40" height="40" viewBox="0 0 40 40" fill="none" xmlns="http://www.w3.org/2000/svg">
<g clip-path="url(#clip0_9548_12649)">
<rect width="40" height="40" rx="20" fill="white"/>
<path fill-rule="evenodd" clip-rule="evenodd" d="M15.5984 12.4867C15.8653 11.1768 17.0309 10.25 18.3663 10.25H21.6337C22.9691 10.25 24.1347 11.1768 24.4016 12.4867C24.4632 12.789 24.7371 13.0109 25.022 13.0109H25.0384L25.0548 13.0116C26.4582 13.0729 27.5362 13.2452 28.4362 13.8356C29.0032 14.2076 29.4909 14.6862 29.871 15.2446C30.3439 15.9395 30.5524 16.7369 30.6524 17.7014C30.75 18.6438 30.75 19.825 30.75 21.3211V21.4062C30.75 22.9023 30.75 24.0835 30.6524 25.0258C30.5524 25.9903 30.3439 26.7878 29.871 27.4826C29.4909 28.0411 29.0032 28.5197 28.4362 28.8917C27.7327 29.3532 26.9262 29.5567 25.948 29.6544C24.9903 29.75 23.789 29.75 22.2634 29.75H17.7366C16.211 29.75 15.0097 29.75 14.052 29.6544C13.0738 29.5567 12.2673 29.3532 11.5638 28.8917C10.9968 28.5197 10.5091 28.0411 10.129 27.4826C9.65612 26.7878 9.44756 25.9903 9.34762 25.0258C9.24998 24.0835 9.24999 22.9023 9.25 21.4062V21.3211C9.24999 19.825 9.24998 18.6438 9.34762 17.7014C9.44756 16.7369 9.65612 15.9395 10.129 15.2446C10.5091 14.6862 10.9968 14.2076 11.5638 13.8356C12.4638 13.2452 13.5418 13.0729 14.9452 13.0116L14.9616 13.0109H14.978C15.2629 13.0109 15.5368 12.789 15.5984 12.4867ZM18.3663 11.75C17.7252 11.75 17.1891 12.193 17.0682 12.7861C16.8726 13.7466 16.021 14.5019 14.9963 14.5108C13.6477 14.5707 12.9254 14.7364 12.3866 15.0898C11.9831 15.3545 11.6375 15.6941 11.3691 16.0886C11.0929 16.4943 10.927 17.0132 10.8396 17.856C10.7509 18.7121 10.75 19.8156 10.75 21.3636C10.75 22.9117 10.7509 24.0152 10.8396 24.8712C10.927 25.714 11.0929 26.2329 11.3691 26.6387C11.6375 27.0332 11.9831 27.3728 12.3866 27.6375C12.8042 27.9114 13.3384 28.0756 14.201 28.1618C15.0755 28.2491 16.2019 28.25 17.7778 28.25H22.2222C23.7981 28.25 24.9245 28.2491 25.799 28.1618C26.6616 28.0756 27.1958 27.9114 27.6134 27.6375C28.0169 27.3728 28.3625 27.0332 28.6309 26.6387C28.9071 26.2329 29.073 25.714 29.1604 24.8712C29.2491 24.0152 29.25 22.9117 29.25 21.3636C29.25 19.8156 29.2491 18.7121 29.1604 17.856C29.073 17.0132 28.9071 16.4943 28.6309 16.0886C28.3625 15.6941 28.0169 15.3545 27.6134 15.0898C27.0746 14.7364 26.3523 14.5707 25.0037 14.5108C23.979 14.5019 23.1274 13.7466 22.9318 12.7861C22.8109 12.193 22.2748 11.75 21.6337 11.75H18.3663ZM20 18.75C18.7574 18.75 17.75 19.7574 17.75 21C17.75 22.2426 18.7574 23.25 20 23.25C21.2426 23.25 22.25 22.2426 22.25 21C22.25 19.7574 21.2426 18.75 20 18.75ZM16.25 21C16.25 18.9289 17.9289 17.25 20 17.25C22.0711 17.25 23.75 18.9289 23.75 21C23.75 23.0711 22.0711 24.75 20 24.75C17.9289 24.75 16.25 23.0711 16.25 21ZM25.25 18C25.25 17.5858 25.5858 17.25 26 17.25H27C27.4142 17.25 27.75 17.5858 27.75 18C27.75 18.4142 27.4142 18.75 27 18.75H26C25.5858 18.75 25.25 18.4142 25.25 18Z" fill="#4B4E4E"/>
<path d="M24.4016 12.4867C24.1347 11.1768 22.9691 10.25 21.6337 10.25H18.3663C17.0309 10.25 15.8653 11.1768 15.5984 12.4867C15.5368 12.789 15.2629 13.0109 14.978 13.0109H14.9616L14.9452 13.0116C13.5418 13.0729 12.4638 13.2452 11.5638 13.8356M24.4016 12.4867L23.6667 12.6364M24.4016 12.4867C24.4632 12.789 24.7371 13.0109 25.022 13.0109H25.0384L25.0548 13.0116C26.4582 13.0729 27.5362 13.2452 28.4362 13.8356C29.0032 14.2076 29.4909 14.6862 29.871 15.2446C30.3439 15.9395 30.5524 16.7369 30.6524 17.7014C30.75 18.6438 30.75 19.825 30.75 21.3211V21.4062C30.75 22.9023 30.75 24.0835 30.6524 25.0258C30.5524 25.9903 30.3439 26.7878 29.871 27.4826C29.4909 28.0411 29.0032 28.5197 28.4362 28.8917C27.7327 29.3532 26.9262 29.5567 25.948 29.6544C24.9903 29.75 23.789 29.75 22.2634 29.75H17.7366C16.211 29.75 15.0097 29.75 14.052 29.6544C13.0738 29.5567 12.2673 29.3532 11.5638 28.8917M11.5638 28.8917L11.9752 28.2646M11.5638 28.8917C10.9968 28.5197 10.5091 28.0411 10.129 27.4826C9.65612 26.7878 9.44756 25.9903 9.34762 25.0258C9.24998 24.0835 9.24999 22.9023 9.25 21.4062V21.3211C9.24999 19.825 9.24998 18.6438 9.34762 17.7014C9.44756 16.7369 9.65612 15.9395 10.129 15.2446C10.5091 14.6862 10.9968 14.2076 11.5638 13.8356M11.5638 13.8356L11.9752 14.4627M17.0682 12.7861C17.1891 12.193 17.7252 11.75 18.3663 11.75H21.6337C22.2748 11.75 22.8109 12.193 22.9318 12.7861C23.1274 13.7466 23.979 14.5019 25.0037 14.5108C26.3523 14.5707 27.0746 14.7364 27.6134 15.0898C28.0169 15.3545 28.3625 15.6941 28.6309 16.0886C28.9071 16.4943 29.073 17.0132 29.1604 17.856C29.2491 18.7121 29.25 19.8156 29.25 21.3636C29.25 22.9117 29.2491 24.0152 29.1604 24.8712C29.073 25.714 28.9071 26.2329 28.6309 26.6387C28.3625 27.0332 28.0169 27.3728 27.6134 27.6375C27.1958 27.9114 26.6616 28.0756 25.799 28.1618C24.9245 28.2491 23.7981 28.25 22.2222 28.25H17.7778C16.2019 28.25 15.0755 28.2491 14.201 28.1618C13.3384 28.0756 12.8042 27.9114 12.3866 27.6375C11.9831 27.3728 11.6375 27.0332 11.3691 26.6387C11.0929 26.2329 10.927 25.714 10.8396 24.8712C10.7509 24.0152 10.75 22.9117 10.75 21.3636C10.75 19.8156 10.7509 18.7121 10.8396 17.856C10.927 17.0132 11.0929 16.4943 11.3691 16.0886C11.6375 15.6941 11.9831 15.3545 12.3866 15.0898C12.9254 14.7364 13.6477 14.5707 14.9963 14.5108C16.021 14.5019 16.8726 13.7466 17.0682 12.7861ZM17.75 21C17.75 19.7574 18.7574 18.75 20 18.75C21.2426 18.75 22.25 19.7574 22.25 21C22.25 22.2426 21.2426 23.25 20 23.25C18.7574 23.25 17.75 22.2426 17.75 21ZM20 17.25C17.9289 17.25 16.25 18.9289 16.25 21C16.25 23.0711 17.9289 24.75 20 24.75C22.0711 24.75 23.75 23.0711 23.75 21C23.75 18.9289 22.0711 17.25 20 17.25ZM26 17.25C25.5858 17.25 25.25 17.5858 25.25 18C25.25 18.4142 25.5858 18.75 26 18.75H27C27.4142 18.75 27.75 18.4142 27.75 18C27.75 17.5858 27.4142 17.25 27 17.25H26Z" stroke="#4B4E4E" stroke-width="0.3"/>
</g>
<rect x="0.5" y="0.5" width="39" height="39" rx="19.5" stroke="#CBCDCD"/>
<defs>
<clipPath id="clip0_9548_12649">
<rect width="40" height="40" rx="20" fill="white"/>
</clipPath>
</defs>
</svg>
