<svg width="20" height="20" viewBox="0 0 20 20" fill="none" xmlns="http://www.w3.org/2000/svg">
<path fill-rule="evenodd" clip-rule="evenodd" d="M8.71704 1.0415H11.2826C12.6188 1.0415 13.6663 1.04149 14.5031 1.12106C15.356 1.20216 16.0545 1.37031 16.6701 1.7476C17.3149 2.1427 17.857 2.68479 18.2521 3.32953C18.6294 3.94522 18.7975 4.64363 18.8786 5.49659C18.9582 6.33341 18.9582 7.38088 18.9582 8.71703V9.60638C18.9582 10.5574 18.9582 11.3031 18.9171 11.9055C18.8753 12.5184 18.7888 13.0285 18.5934 13.5002C18.1071 14.6743 17.1743 15.6071 16.0002 16.0934C15.3294 16.3713 14.5653 16.4329 13.5193 16.451C13.1533 16.4573 12.9216 16.4619 12.7449 16.4814C12.5798 16.4997 12.5158 16.5265 12.4784 16.5483C12.4389 16.5713 12.385 16.6132 12.2916 16.7414C12.1905 16.8801 12.0762 17.0719 11.895 17.378L11.4432 18.1413C10.7986 19.2304 9.20106 19.2304 8.55641 18.1413L8.10466 17.378C7.92346 17.0719 7.80918 16.8801 7.70805 16.7414C7.6146 16.6132 7.56078 16.5713 7.52127 16.5483C7.48382 16.5265 7.41983 16.4997 7.25474 16.4814C7.07806 16.4619 6.8463 16.4573 6.48039 16.451C5.43432 16.4329 4.67029 16.3713 3.99948 16.0934C2.82539 15.6071 1.89257 14.6743 1.40625 13.5002C1.21086 13.0285 1.12442 12.5184 1.0826 11.9055C1.0415 11.3031 1.0415 10.5574 1.0415 9.60637L1.0415 8.71704C1.0415 7.38089 1.04149 6.33342 1.12106 5.49659C1.20216 4.64363 1.37031 3.94522 1.7476 3.32953C2.1427 2.68479 2.68479 2.1427 3.32953 1.7476C3.94522 1.37031 4.64363 1.20216 5.49659 1.12106C6.33342 1.04149 7.38089 1.0415 8.71704 1.0415ZM5.61491 2.36545C4.85345 2.43785 4.36893 2.5767 3.98266 2.8134C3.5061 3.10543 3.10543 3.5061 2.8134 3.98266C2.5767 4.36893 2.43785 4.85345 2.36545 5.61491C2.29216 6.38567 2.2915 7.37381 2.2915 8.74984V9.58317C2.2915 10.5624 2.29184 11.2656 2.3297 11.8204C2.36718 12.3697 2.43932 12.7278 2.5611 13.0218C2.92056 13.8896 3.61003 14.5791 4.47783 14.9386C4.90753 15.1166 5.45572 15.1831 6.50192 15.2011L6.52844 15.2016C6.8601 15.2073 7.15074 15.2123 7.39231 15.239C7.65189 15.2678 7.90576 15.3259 8.14972 15.4678C8.39163 15.6085 8.56611 15.7964 8.71822 16.0051C8.85877 16.198 9.00321 16.442 9.16681 16.7185L9.6321 17.5046C9.79274 17.7759 10.2069 17.7759 10.3675 17.5046L10.8328 16.7185C10.9964 16.442 11.1409 16.198 11.2814 16.0051C11.4335 15.7964 11.608 15.6085 11.8499 15.4678C12.0939 15.3259 12.3478 15.2678 12.6073 15.239C12.8489 15.2123 13.1395 15.2073 13.4712 15.2016L13.4977 15.2011C14.5439 15.1831 15.0921 15.1166 15.5218 14.9386C16.3896 14.5791 17.0791 13.8896 17.4386 13.0218C17.5604 12.7278 17.6325 12.3697 17.67 11.8204C17.7078 11.2656 17.7082 10.5624 17.7082 9.58317V8.74984C17.7082 7.37381 17.7075 6.38567 17.6342 5.61491C17.5618 4.85345 17.423 4.36893 17.1863 3.98266C16.8942 3.5061 16.4936 3.10543 16.017 2.8134C15.6307 2.5767 15.1462 2.43785 14.3848 2.36545C13.614 2.29216 12.6259 2.2915 11.2498 2.2915H8.74984C7.37381 2.2915 6.38567 2.29216 5.61491 2.36545ZM6.0415 7.49984C6.0415 7.15466 6.32133 6.87484 6.6665 6.87484H13.3332C13.6783 6.87484 13.9582 7.15466 13.9582 7.49984C13.9582 7.84502 13.6783 8.12484 13.3332 8.12484H6.6665C6.32133 8.12484 6.0415 7.84502 6.0415 7.49984ZM6.0415 10.4165C6.0415 10.0713 6.32133 9.7915 6.6665 9.7915H11.2498C11.595 9.7915 11.8748 10.0713 11.8748 10.4165C11.8748 10.7617 11.595 11.0415 11.2498 11.0415H6.6665C6.32133 11.0415 6.0415 10.7617 6.0415 10.4165Z" fill="#4B4E4E"/>
</svg>
