<svg width="40" height="40" viewBox="0 0 40 40" fill="none" xmlns="http://www.w3.org/2000/svg">
<g clip-path="url(#clip0_9489_6303)">
<path fill-rule="evenodd" clip-rule="evenodd" d="M20 10.9005C19.8811 11.077 19.7345 11.3372 19.5164 11.7285L19.3853 11.9637C19.3756 11.9811 19.3655 11.9994 19.3551 12.0183C19.2465 12.2156 19.099 12.4836 18.8555 12.6685C18.6074 12.8568 18.3083 12.9227 18.0944 12.9697C18.0741 12.9742 18.0545 12.9785 18.0359 12.9827L17.7813 13.0403C17.3162 13.1456 17.0263 13.2129 16.8315 13.281C16.9519 13.462 17.1541 13.701 17.482 14.0845L17.6556 14.2874C17.6683 14.3024 17.6816 14.3178 17.6954 14.3337C17.8431 14.5047 18.0397 14.7322 18.1305 15.0244C18.2204 15.3135 18.19 15.6126 18.1667 15.8412C18.1646 15.8626 18.1624 15.8833 18.1605 15.9034L18.1343 16.1741C18.0874 16.6577 18.0585 16.9706 18.0593 17.1919C18.2516 17.1238 18.5148 17.0042 18.9166 16.8192L19.1549 16.7095C19.1725 16.7014 19.1908 16.6928 19.21 16.6839C19.4078 16.5913 19.6885 16.4599 20 16.4599C20.3115 16.4599 20.5922 16.5913 20.7901 16.6839C20.8092 16.6928 20.8275 16.7014 20.8451 16.7095L21.0834 16.8192C21.4852 17.0042 21.7485 17.1238 21.9407 17.1919C21.9415 16.9706 21.9126 16.6577 21.8657 16.1741L21.8395 15.9034C21.8376 15.8833 21.8355 15.8626 21.8333 15.8412C21.81 15.6126 21.7796 15.3135 21.8695 15.0244C21.9603 14.7322 22.1569 14.5047 22.3046 14.3337C22.3184 14.3178 22.3317 14.3024 22.3444 14.2874L22.518 14.0845C22.8459 13.701 23.0481 13.462 23.1685 13.281C22.9738 13.2129 22.6839 13.1456 22.2187 13.0403L21.9641 12.9827C21.9455 12.9785 21.9259 12.9742 21.9056 12.9697C21.6918 12.9227 21.3926 12.8568 21.1445 12.6685C20.901 12.4836 20.7535 12.2156 20.6449 12.0183C20.6345 11.9994 20.6245 11.9811 20.6147 11.9637L20.4836 11.7285C20.2655 11.3372 20.1189 11.077 20 10.9005ZM22.1529 17.2502C22.1541 17.2502 22.1547 17.2503 22.1547 17.2503L22.1529 17.2502ZM17.8453 17.2503C17.8453 17.2503 17.8459 17.2502 17.8471 17.2502L17.8453 17.2503ZM18.8832 9.88484C19.0988 9.60321 19.451 9.25 20 9.25C20.549 9.25 20.9012 9.60321 21.1169 9.88484C21.3245 10.156 21.5371 10.5375 21.7683 10.9524C21.7768 10.9676 21.7853 10.9829 21.7938 10.9982L21.9249 11.2333C21.9617 11.2993 21.9902 11.3504 22.0155 11.3941C22.0324 11.4235 22.0458 11.4457 22.0565 11.4629C22.0733 11.4675 22.0946 11.473 22.1219 11.4797C22.1689 11.4911 22.2235 11.5035 22.2952 11.5197L22.5497 11.5773C22.5671 11.5812 22.5844 11.5851 22.6016 11.589C23.0486 11.6901 23.4657 11.7844 23.7807 11.9085C24.122 12.043 24.5343 12.2854 24.6932 12.7964C24.8496 13.2992 24.6571 13.7332 24.4626 14.0421C24.2799 14.3323 23.9979 14.662 23.6916 15.0201L23.4844 15.2623C23.4357 15.3193 23.3981 15.3633 23.3662 15.4018C23.3401 15.4334 23.322 15.4562 23.309 15.4734C23.3107 15.5291 23.3179 15.6075 23.3325 15.7587L23.3637 16.0803C23.4102 16.5596 23.4526 16.997 23.4373 17.3415C23.4213 17.6994 23.3369 18.1785 22.9114 18.5015C22.4737 18.8337 21.9847 18.7689 21.6378 18.6695C21.3132 18.5765 20.9231 18.3969 20.5049 18.2042C20.4887 18.1967 20.4724 18.1892 20.4561 18.1817L20.2177 18.072C20.1507 18.0411 20.0994 18.0175 20.0548 17.9979C20.0329 17.9882 20.0149 17.9805 20 17.9744C19.9851 17.9805 19.9671 17.9882 19.9452 17.9979C19.9006 18.0175 19.8493 18.0411 19.7823 18.072L19.5439 18.1817C19.5276 18.1892 19.5114 18.1967 19.4951 18.2042C19.0769 18.3969 18.6868 18.5765 18.3622 18.6695C18.0153 18.7689 17.5263 18.8337 17.0886 18.5015C16.6631 18.1785 16.5787 17.6994 16.5627 17.3415C16.5474 16.997 16.5898 16.5596 16.6363 16.0804C16.638 16.0634 16.6396 16.0465 16.6413 16.0294L16.6675 15.7587C16.6821 15.6075 16.6893 15.5291 16.691 15.4734C16.678 15.4562 16.66 15.4334 16.6338 15.4018C16.6019 15.3633 16.5643 15.3193 16.5156 15.2623L16.342 15.0594C16.3308 15.0463 16.3196 15.0332 16.3084 15.0201C16.0021 14.662 15.7201 14.3323 15.5374 14.0421C15.3429 13.7332 15.1505 13.2992 15.3068 12.7964C15.4657 12.2854 15.8781 12.043 16.2194 11.9085C16.5343 11.7844 16.9515 11.6901 17.3984 11.5891C17.4156 11.5851 17.4329 11.5812 17.4503 11.5773L17.7048 11.5197C17.7765 11.5035 17.8311 11.4911 17.8781 11.4797C17.9054 11.473 17.9267 11.4675 17.9435 11.4629C17.9542 11.4457 17.9676 11.4235 17.9846 11.3941C18.0098 11.3504 18.0383 11.2993 18.0751 11.2333L18.2062 10.9982C18.2147 10.9829 18.2232 10.9676 18.2317 10.9524C18.4629 10.5375 18.6755 10.156 18.8832 9.88484ZM12 16.2016C12.0522 16.2979 12.1632 16.4945 12.3455 16.6329C12.5414 16.7817 12.7766 16.8312 12.8743 16.8517C12.8841 16.8538 12.8925 16.8556 12.8993 16.8571L12.9199 16.8618L12.8872 16.9C12.8822 16.9059 12.8761 16.9128 12.8692 16.9207C12.8007 16.9988 12.6474 17.1734 12.5767 17.4008C12.5069 17.6251 12.532 17.8548 12.5435 17.9598C12.5447 17.9705 12.5457 17.9799 12.5465 17.9878L12.5476 17.999C12.4533 17.9539 12.2395 17.855 12 17.855C11.7605 17.855 11.5467 17.9538 11.4524 17.999L11.4535 17.9878C11.4543 17.9799 11.4553 17.9705 11.4565 17.9598C11.468 17.8548 11.4931 17.6251 11.4233 17.4008C11.3526 17.1734 11.1994 16.9988 11.1308 16.9207C11.1239 16.9128 11.1178 16.9059 11.1128 16.9L11.0801 16.8618L11.1007 16.8571C11.1075 16.8556 11.1159 16.8538 11.1257 16.8517C11.2234 16.8312 11.4586 16.7817 11.6545 16.6329C11.8368 16.4945 11.9478 16.2979 12 16.2016ZM10.9352 16.1256L10.7933 15.4985L10.9352 16.1256ZM11.406 18.6324C11.4062 18.6338 11.4063 18.6346 11.4063 18.6346L11.406 18.6324ZM12.5937 18.6346C12.5937 18.6346 12.5938 18.6338 12.594 18.6324L12.5937 18.6346ZM11.1439 14.7144C11.2725 14.5464 11.5456 14.25 12 14.25C12.4544 14.25 12.7275 14.5464 12.8562 14.7144C12.9772 14.8725 13.0959 15.0856 13.2051 15.2817C13.2116 15.2933 13.218 15.305 13.2245 15.3165L13.2731 15.4038L13.3576 15.4229C13.3705 15.4258 13.3835 15.4287 13.3965 15.4317C13.6074 15.4793 13.8425 15.5323 14.0278 15.6054C14.2388 15.6885 14.5751 15.87 14.7047 16.2868C14.8318 16.6955 14.6666 17.0335 14.5487 17.2208C14.4422 17.39 14.2844 17.5743 14.1396 17.7435C14.131 17.7535 14.1225 17.7635 14.114 17.7734L14.041 17.8587L14.0526 17.9785C14.0539 17.9915 14.0552 18.0046 14.0564 18.0177C14.0785 18.2443 14.1022 18.4877 14.0933 18.6874C14.0838 18.9 14.0313 19.2846 13.6825 19.5494C13.3214 19.8235 12.9282 19.7562 12.7156 19.6953C12.5246 19.6405 12.305 19.5393 12.1078 19.4483C12.0955 19.4427 12.0833 19.4371 12.0712 19.4315L12 19.3987L11.9288 19.4315C11.9167 19.4371 11.9045 19.4427 11.8922 19.4483C11.695 19.5393 11.4754 19.6405 11.2844 19.6953C11.0718 19.7562 10.6787 19.8235 10.3176 19.5494C9.96868 19.2846 9.91621 18.9 9.90674 18.6874C9.89784 18.4877 9.92152 18.2443 9.94358 18.0177C9.94485 18.0046 9.94612 17.9915 9.94738 17.9785L9.95899 17.8587L9.88602 17.7734C9.87755 17.7635 9.86902 17.7535 9.86044 17.7435C9.71558 17.5743 9.55785 17.39 9.45134 17.2208C9.33342 17.0335 9.16823 16.6955 9.29532 16.2868C9.42495 15.87 9.76119 15.6885 9.97219 15.6054C10.1576 15.5323 10.3926 15.4793 10.6035 15.4317C10.6166 15.4287 10.6295 15.4258 10.6424 15.4229L10.7269 15.4038L10.7755 15.3165C10.782 15.305 10.7884 15.2933 10.7949 15.2817C10.9041 15.0856 11.0228 14.8725 11.1439 14.7144ZM28 16.2016C28.0522 16.2979 28.1632 16.4945 28.3455 16.6329C28.5414 16.7817 28.7766 16.8312 28.8743 16.8517C28.8841 16.8538 28.8925 16.8556 28.8993 16.8571L28.9199 16.8618L28.8872 16.9C28.8822 16.9059 28.8761 16.9128 28.8692 16.9207C28.8007 16.9988 28.6474 17.1734 28.5767 17.4008C28.5069 17.6251 28.532 17.8548 28.5435 17.9598C28.5447 17.9705 28.5457 17.9799 28.5465 17.9878L28.5476 17.999C28.4533 17.9538 28.2395 17.855 28 17.855C27.7605 17.855 27.5467 17.9538 27.4524 17.999L27.4535 17.9878C27.4543 17.9799 27.4553 17.9705 27.4565 17.9598C27.468 17.8548 27.4931 17.6251 27.4233 17.4008C27.3526 17.1734 27.1994 16.9988 27.1308 16.9207C27.1239 16.9128 27.1178 16.9059 27.1128 16.9L27.0801 16.8618L27.1007 16.8571C27.1075 16.8556 27.1159 16.8538 27.1257 16.8517C27.2234 16.8312 27.4586 16.7817 27.6545 16.6329C27.8368 16.4945 27.9478 16.2979 28 16.2016ZM27.406 18.6324C27.4062 18.634 27.4063 18.6347 27.4063 18.6346L27.406 18.6324ZM27.1438 14.7144C27.2725 14.5464 27.5456 14.25 28 14.25C28.4544 14.25 28.7275 14.5464 28.8562 14.7144C28.9772 14.8725 29.0959 15.0856 29.2051 15.2817C29.2116 15.2933 29.218 15.305 29.2245 15.3165L29.2731 15.4038L29.3576 15.4229C29.3705 15.4258 29.3835 15.4287 29.3965 15.4317C29.6074 15.4793 29.8425 15.5323 30.0278 15.6054C30.2388 15.6885 30.5751 15.87 30.7047 16.2868C30.8318 16.6955 30.6666 17.0335 30.5487 17.2208C30.4422 17.39 30.2844 17.5743 30.1396 17.7435C30.131 17.7536 30.1225 17.7635 30.114 17.7734L30.041 17.8588L30.0526 17.9785C30.0539 17.9915 30.0552 18.0046 30.0564 18.0176C30.0785 18.2443 30.1022 18.4877 30.0933 18.6874C30.0838 18.9 30.0313 19.2846 29.6825 19.5494C29.3214 19.8235 28.9282 19.7562 28.7156 19.6953C28.5246 19.6405 28.305 19.5393 28.1078 19.4484C28.0955 19.4427 28.0833 19.4371 28.0712 19.4315L28 19.3987L27.9288 19.4315C27.9167 19.4371 27.9045 19.4427 27.8923 19.4483C27.695 19.5393 27.4754 19.6405 27.2844 19.6953C27.0718 19.7562 26.6787 19.8235 26.3176 19.5494C25.9687 19.2846 25.9162 18.9 25.9067 18.6874C25.8978 18.4877 25.9215 18.2443 25.9436 18.0177C25.9449 18.0046 25.9461 17.9915 25.9474 17.9785L25.959 17.8587L25.886 17.7734C25.8775 17.7635 25.869 17.7535 25.8604 17.7435C25.7156 17.5743 25.5578 17.39 25.4513 17.2208C25.3334 17.0335 25.1682 16.6955 25.2953 16.2868C25.4249 15.87 25.7612 15.6885 25.9722 15.6054C26.1576 15.5323 26.3926 15.4793 26.6035 15.4317C26.6166 15.4287 26.6295 15.4258 26.6424 15.4229L26.7269 15.4038L26.7755 15.3165C26.782 15.305 26.7884 15.2933 26.7949 15.2817C26.9041 15.0856 27.0228 14.8725 27.1438 14.7144ZM28.5937 18.6346C28.5937 18.6346 28.5938 18.6338 28.594 18.6324L28.5937 18.6346ZM16.6839 22.4482C18.5497 22.0867 20.5471 22.1678 22.1633 23.1318C22.3903 23.2672 22.6031 23.4359 22.7887 23.6444C23.1646 24.0666 23.3587 24.5913 23.3679 25.1174C23.5591 24.994 23.7507 24.857 23.9454 24.71L25.7526 23.3448C26.6571 22.6615 27.9718 22.6614 28.8765 23.3445C29.7124 23.9757 30.0457 25.1085 29.4473 26.0677C29.0219 26.7495 28.3814 27.6924 27.7296 28.2962C27.0706 28.9065 26.1329 29.4196 25.4235 29.762C24.562 30.1778 23.6316 30.4077 22.7268 30.5541C20.8776 30.8534 18.9534 30.8076 17.125 30.431C16.1906 30.2384 15.2196 30.1384 14.2599 30.1384H12C11.5858 30.1384 11.25 29.8026 11.25 29.3884C11.25 28.9742 11.5858 28.6384 12 28.6384H14.2599C15.322 28.6384 16.3945 28.749 17.4277 28.9618C19.0797 29.3022 20.8201 29.3432 22.4871 29.0734C23.316 28.9392 24.0901 28.74 24.7715 28.4111C25.4549 28.0812 26.2232 27.6468 26.7103 27.1957C27.2028 26.7395 27.754 25.9479 28.1746 25.2738C28.3015 25.0703 28.284 24.7767 27.9726 24.5416C27.6029 24.2624 27.0263 24.2625 26.6567 24.5417L24.8495 25.9069C24.1281 26.4518 23.2401 27.0349 22.1387 27.2106C22.0276 27.2283 21.9118 27.2445 21.7917 27.2588C21.7345 27.2692 21.6748 27.276 21.6132 27.2783C21.0509 27.3342 20.3997 27.3472 19.6813 27.2793C19.2689 27.2404 18.9662 26.8745 19.0051 26.4621C19.044 26.0497 19.4099 25.747 19.8223 25.786C20.4497 25.8452 21.0126 25.8321 21.4902 25.7831C21.4999 25.7821 21.5096 25.7811 21.5192 25.7801C21.5391 25.7685 21.5696 25.7474 21.6096 25.7125C21.9291 25.4336 21.9576 24.9667 21.6684 24.6418C21.5951 24.5595 21.5048 24.4856 21.3949 24.42C20.2137 23.7155 18.6362 23.5978 16.9692 23.9208C15.3117 24.2419 13.6649 24.9817 12.4339 25.8547C12.096 26.0943 11.6278 26.0146 11.3882 25.6768C11.1486 25.3389 11.2283 24.8708 11.5661 24.6311C12.9645 23.6395 14.8086 22.8115 16.6839 22.4482Z" fill="white"/>
</g>
<defs>
<clipPath id="clip0_9489_6303">
<rect width="40" height="40" rx="20" fill="white"/>
</clipPath>
</defs>
</svg>
