<svg width="40" height="40" viewBox="0 0 40 40" fill="none" xmlns="http://www.w3.org/2000/svg">
<g clip-path="url(#clip0_9489_6290)">
<path d="M28 19C28 14.5817 24.4183 11 20 11C15.5817 11 12 14.5817 12 19" stroke="white" stroke-width="1.4" stroke-linecap="round" stroke-linejoin="round"/>
<path d="M10 23.4382V21.5614C10 20.6436 10.6246 19.8437 11.5149 19.6211L13.2545 19.1862C13.6332 19.0915 14 19.3779 14 19.7683V25.2313C14 25.6217 13.6332 25.9081 13.2545 25.8134L11.5149 25.3785C10.6246 25.1559 10 24.356 10 23.4382Z" stroke="white" stroke-width="1.4"/>
<path d="M30 23.4382V21.5614C30 20.6436 29.3754 19.8437 28.4851 19.6211L26.7455 19.1862C26.3668 19.0915 26 19.3779 26 19.7683V25.2313C26 25.6217 26.3668 25.9081 26.7455 25.8134L28.4851 25.3785C29.3754 25.1559 30 24.356 30 23.4382Z" stroke="white" stroke-width="1.4"/>
<path d="M28 25.5V26C28 27.1046 27.1046 28 26 28H22.5" stroke="white" stroke-width="1.4"/>
<path d="M21.5 29.5H18.5C17.6716 29.5 17 28.8284 17 28C17 27.1716 17.6716 26.5 18.5 26.5H21.5C22.3284 26.5 23 27.1716 23 28C23 28.8284 22.3284 29.5 21.5 29.5Z" stroke="white" stroke-width="1.4"/>
</g>
<defs>
<clipPath id="clip0_9489_6290">
<rect width="40" height="40" rx="20" fill="white"/>
</clipPath>
</defs>
</svg>
