<svg width="20" height="20" viewBox="0 0 20 20" fill="none" xmlns="http://www.w3.org/2000/svg">
<path d="M16.6668 9.16667C16.6668 5.48477 13.6821 2.5 10.0002 2.5C6.31826 2.5 3.3335 5.48477 3.3335 9.16667" stroke="#4B4E4E" stroke-width="1.2" stroke-linecap="round" stroke-linejoin="round"/>
<path d="M1.6665 12.8652V11.3012C1.6665 10.5363 2.187 9.86974 2.92895 9.68424L4.37857 9.32182C4.69415 9.24291 4.99984 9.48157 4.99984 9.80691V14.3594C4.99984 14.6847 4.69415 14.9234 4.37857 14.8445L2.92895 14.4821C2.187 14.2966 1.6665 13.63 1.6665 12.8652Z" stroke="#4B4E4E" stroke-width="1.2"/>
<path d="M18.3333 12.8652V11.3012C18.3333 10.5363 17.8128 9.86974 17.0709 9.68424L15.6213 9.32182C15.3057 9.24291 15 9.48157 15 9.80691V14.3594C15 14.6847 15.3057 14.9234 15.6213 14.8445L17.0709 14.4821C17.8128 14.2966 18.3333 13.63 18.3333 12.8652Z" stroke="#4B4E4E" stroke-width="1.2"/>
<path d="M16.6668 14.5835V15.0002C16.6668 15.9207 15.9207 16.6668 15.0002 16.6668H12.0835" stroke="#4B4E4E" stroke-width="1.2"/>
<path d="M11.25 17.9165H8.75C8.05964 17.9165 7.5 17.3568 7.5 16.6665C7.5 15.9762 8.05964 15.4165 8.75 15.4165H11.25C11.9403 15.4165 12.5 15.9762 12.5 16.6665C12.5 17.3568 11.9403 17.9165 11.25 17.9165Z" stroke="#4B4E4E" stroke-width="1.2"/>
</svg>
