<svg width="40" height="40" viewBox="0 0 40 40" fill="none" xmlns="http://www.w3.org/2000/svg">
<g clip-path="url(#clip0_9484_6037)">
<path fill-rule="evenodd" clip-rule="evenodd" d="M26.0907 10.5488C25.5383 10.2395 24.9502 10.2083 24.3286 10.286C23.7381 10.3598 23.0198 10.5465 22.1565 10.7709L20.1382 11.2954C19.2753 11.5196 18.5568 11.7063 18.007 11.9289C17.429 12.1629 16.9293 12.4774 16.6051 13.0219C16.2788 13.57 16.2465 14.1558 16.3278 14.7678C16.4044 15.3447 16.5979 16.0449 16.8283 16.879L17.3709 18.8429C17.6014 19.6775 17.7948 20.3775 18.0257 20.9139C18.2708 21.4835 18.5983 21.9684 19.1539 22.2795C19.7062 22.5888 20.2943 22.62 20.916 22.5423C21.5064 22.4685 22.2248 22.2818 23.0881 22.0574L25.1064 21.5329C25.9693 21.3086 26.6878 21.1219 27.2375 20.8994C27.8155 20.6653 28.3153 20.3509 28.6395 19.8063C28.9657 19.2583 28.9981 18.6724 28.9168 18.0605C28.8402 17.4835 28.6467 16.7834 28.4162 15.9493L27.8737 13.9854C27.6431 13.1508 27.4498 12.4508 27.2189 11.9143C26.9737 11.3448 26.6463 10.8599 26.0907 10.5488ZM22.4848 12.2354C23.4097 11.995 24.0329 11.8346 24.5146 11.7744C24.9762 11.7167 25.1972 11.7676 25.3578 11.8575C25.5152 11.9457 25.6655 12.0993 25.8411 12.5073C26.0263 12.9377 26.1936 13.5368 26.4418 14.4355L26.9562 16.2975C27.2046 17.1964 27.3685 17.7961 27.4299 18.2581C27.4882 18.6968 27.436 18.8956 27.3506 19.0391C27.2631 19.186 27.1045 19.3349 26.6746 19.509C26.2269 19.6903 25.6048 19.8535 24.6796 20.0939L22.7598 20.5929C21.8348 20.8333 21.2117 20.9937 20.73 21.0539C20.2683 21.1116 20.0474 21.0607 19.8868 20.9707C19.7294 20.8826 19.5791 20.729 19.4035 20.3209C19.2183 19.8906 19.051 19.2914 18.8027 18.3928L18.2883 16.5307C18.04 15.6319 17.8761 15.0322 17.8147 14.5702C17.7564 14.1315 17.8086 13.9327 17.894 13.7892C17.9815 13.6423 18.14 13.4933 18.57 13.3193C19.0177 13.138 19.6398 12.9748 20.5649 12.7343L22.4848 12.2354Z" fill="white"/>
<path fill-rule="evenodd" clip-rule="evenodd" d="M11.2005 12.7247C10.8014 12.614 10.388 12.8477 10.2773 13.2469C10.1666 13.646 10.4004 14.0594 10.7995 14.1701L12.5032 14.6428C12.9288 14.7609 13.2457 15.0824 13.354 15.4743L15.3053 22.5374C15.2303 22.5521 15.1554 22.5692 15.0806 22.5887C13.1036 23.1025 11.8954 25.0913 12.4382 27.0558C12.9783 29.0108 15.032 30.1384 17.0012 29.6266C18.7245 29.1788 19.8636 27.6102 19.7681 25.9139L28.1887 23.7256C28.5896 23.6214 28.8301 23.2119 28.7259 22.811C28.6217 22.4101 28.2123 22.1696 27.8114 22.2738L19.3732 24.4667C18.8649 23.4794 17.9313 22.7927 16.8667 22.5562L14.7998 15.0748C14.5467 14.1586 13.8211 13.4518 12.9042 13.1974L11.2005 12.7247ZM15.4579 24.0404C16.6696 23.7255 17.8856 24.4288 18.1978 25.5589C18.5074 26.6796 17.8278 27.862 16.6239 28.1748C15.4122 28.4897 14.1962 27.7864 13.884 26.6563C13.5744 25.5357 14.254 24.3533 15.4579 24.0404Z" fill="white"/>
</g>
<defs>
<clipPath id="clip0_9484_6037">
<rect width="40" height="40" rx="20" fill="white"/>
</clipPath>
</defs>
</svg>
