<svg width="30" height="35" viewBox="0 0 30 35" fill="none" xmlns="http://www.w3.org/2000/svg">
<path fill-rule="evenodd" clip-rule="evenodd" d="M16.4652 1.03076C17.298 1.10557 17.9151 1.84738 17.8435 2.68764L17.5487 6.14758C17.4874 6.86707 16.941 7.42545 16.2623 7.52412C16.1748 7.63437 16.071 7.73434 15.9517 7.82013C15.2668 8.31246 14.3297 8.15147 13.8585 7.46054L11.9183 4.6155C11.4471 3.92457 11.6202 2.96534 12.305 2.47301C12.9899 1.98068 13.927 2.14167 14.3982 2.8326L14.7484 3.3461L14.8276 2.41673C14.8992 1.57647 15.6324 0.95595 16.4652 1.03076Z" fill="#347B72"/>
<ellipse cx="15" cy="18.9264" rx="15" ry="15.401" fill="white"/>
<ellipse cx="5.27255" cy="25.6125" rx="2.27059" ry="2.33129" fill="#FFC6AD" fill-opacity="0.13"/>
<ellipse cx="24.337" cy="25.6125" rx="2.27059" ry="2.33129" fill="#FFC6AD" fill-opacity="0.13"/>
<ellipse cx="1.96785" cy="2.02046" rx="1.96785" ry="2.02046" transform="matrix(-1 0 0 1 9.97363 18.9316)" fill="#282828"/>
<ellipse cx="0.454119" cy="0.466259" rx="0.454119" ry="0.466259" transform="matrix(-1 0 0 1 9.36133 19.8633)" fill="white"/>
<ellipse cx="1.96785" cy="2.02046" rx="1.96785" ry="2.02046" transform="matrix(-1 0 0 1 23.584 18.9316)" fill="#282828"/>
<ellipse cx="0.454119" cy="0.466259" rx="0.454119" ry="0.466259" transform="matrix(-1 0 0 1 22.9717 19.8633)" fill="white"/>
<path d="M17.8274 26.4638C17.8274 25.5625 16.5397 24.8318 14.9513 24.8318C13.3629 24.8318 12.0752 25.5625 12.0752 26.4638C12.0752 27.365 13.3629 29.1836 14.9513 29.1836C16.5397 29.1836 17.8274 27.365 17.8274 26.4638Z" fill="#F0C802"/>
<path d="M18.1457 25.5341C18.1457 24.6328 16.7225 23.9022 14.9669 23.9022C13.2113 23.9022 11.7881 24.6328 11.7881 25.5341C11.7881 26.4353 13.2113 28.2539 14.9669 28.2539C16.7225 28.2539 18.1457 26.4353 18.1457 25.5341Z" fill="#FED402"/>
<path fill-rule="evenodd" clip-rule="evenodd" d="M15.0137 15.0028C16.7937 13.4505 18.9286 12.661 21.1067 12.9579C25.8651 13.6065 29.0895 19.2032 28.5133 25.6214C29.466 23.5975 30 21.3269 30 18.9283C30 10.4226 23.2843 3.52734 15 3.52734C6.71573 3.52734 0 10.4226 0 18.9283C0 21.3553 0.546742 23.6511 1.52066 25.693C0.913924 19.2449 4.14456 13.6089 8.92069 12.9579C11.0988 12.661 13.2337 13.4505 15.0137 15.0028Z" fill="#347B72"/>
</svg>
