<svg width="20" height="20" viewBox="0 0 20 20" fill="none" xmlns="http://www.w3.org/2000/svg">
<path fill-rule="evenodd" clip-rule="evenodd" d="M8.2864 2.7085H11.7138C13.2452 2.70848 14.4583 2.70847 15.4076 2.83611C16.3846 2.96747 17.1754 3.24423 17.799 3.86787C18.4227 4.4915 18.6994 5.28229 18.8308 6.25931C18.9584 7.20866 18.9584 8.42169 18.9584 9.95315V10.0472C18.9584 11.5786 18.9584 12.7917 18.8308 13.741C18.6994 14.718 18.4227 15.5088 17.799 16.1325C17.1754 16.7561 16.3846 17.0329 15.4076 17.1642C14.4583 17.2919 13.2452 17.2918 11.7138 17.2918H8.28641C6.75494 17.2918 5.54191 17.2919 4.59256 17.1642C3.61554 17.0329 2.82475 16.7561 2.20112 16.1325C1.57748 15.5088 1.30072 14.718 1.16936 13.741C1.04172 12.7917 1.04174 11.5786 1.04175 10.0472V9.95315C1.04174 8.42168 1.04172 7.20866 1.16936 6.25931C1.30072 5.28229 1.57748 4.4915 2.20112 3.86787C2.82475 3.24423 3.61554 2.96747 4.59256 2.83611C5.54191 2.70847 6.75493 2.70848 8.2864 2.7085ZM4.75912 4.07496C3.92071 4.18768 3.43768 4.39907 3.085 4.75175C2.73233 5.10442 2.52094 5.58746 2.40821 6.42587C2.29308 7.28226 2.29175 8.41115 2.29175 10.0002C2.29175 11.5892 2.29308 12.7181 2.40821 13.5745C2.52094 14.4129 2.73233 14.8959 3.085 15.2486C3.43768 15.6013 3.92071 15.8126 4.75912 15.9254C5.61551 16.0405 6.7444 16.0418 8.33341 16.0418H11.6667C13.2558 16.0418 14.3847 16.0405 15.241 15.9254C16.0794 15.8126 16.5625 15.6013 16.9152 15.2486C17.2678 14.8959 17.4792 14.4129 17.5919 13.5745C17.7071 12.7181 17.7084 11.5892 17.7084 10.0002C17.7084 8.41115 17.7071 7.28226 17.5919 6.42587C17.4792 5.58746 17.2678 5.10442 16.9152 4.75175C16.5625 4.39907 16.0794 4.18768 15.241 4.07496C14.3847 3.95982 13.2558 3.9585 11.6667 3.9585H8.33342C6.7444 3.9585 5.61551 3.95982 4.75912 4.07496ZM4.51994 6.26671C4.74092 6.00154 5.13502 5.96571 5.4002 6.18669L7.19928 7.68592C7.97674 8.33381 8.51652 8.78218 8.97223 9.07527C9.41337 9.35899 9.71252 9.45423 10.0001 9.45423C10.2876 9.45423 10.5868 9.35899 11.0279 9.07527C11.4836 8.78218 12.0234 8.33381 12.8009 7.68592L14.6 6.18669C14.8651 5.96571 15.2592 6.00154 15.4802 6.26671C15.7012 6.53189 15.6654 6.92599 15.4002 7.14697L13.5698 8.67231C12.8312 9.28786 12.2325 9.78676 11.7041 10.1266C11.1537 10.4806 10.6176 10.7042 10.0001 10.7042C9.38252 10.7042 8.84648 10.4806 8.29606 10.1266C7.76768 9.78677 7.16901 9.28786 6.43038 8.67232L4.59997 7.14697C4.33479 6.92599 4.29897 6.53189 4.51994 6.26671Z" fill="#B1B4B4" stroke="#B1B4B4" stroke-width="0.3" stroke-linecap="round"/>
</svg>
