<svg width="40" height="40" viewBox="0 0 40 40" fill="none" xmlns="http://www.w3.org/2000/svg">
<path d="M14.9364 27.206L14.9069 27.1262L14.8232 27.1106C14.0608 26.9688 13.3029 26.7954 12.5512 26.5904C10.3314 25.985 9.35707 23.3828 10.6334 21.4683L11.782 19.7454C12.185 19.1409 12.4 18.4306 12.4 17.7041V17C12.4 12.8026 15.8027 9.4 20 9.4C24.1974 9.4 27.6 12.8026 27.6 17V17.7041C27.6 18.4306 27.8151 19.1409 28.2181 19.7454L29.3667 21.4683C30.643 23.3828 29.6687 25.985 27.4488 26.5904C26.6972 26.7954 25.9391 26.9688 25.1767 27.1106L25.0931 27.1262L25.0635 27.206L25.0618 27.2106C25.0618 27.2106 25.0618 27.2107 25.0617 27.2108C24.3155 29.2017 22.3179 30.6 20 30.6C17.682 30.6 15.6843 29.2016 14.9381 27.2106L14.9364 27.206ZM23.4996 27.6227L23.6905 27.3484L23.3587 27.388C21.1275 27.6546 18.8724 27.6546 16.6413 27.388L16.3095 27.3484L16.5004 27.6226C17.2395 28.6846 18.5221 29.4 20 29.4C21.4778 29.4 22.7605 28.6846 23.4996 27.6227ZM20 10.6C16.4654 10.6 13.6 13.4654 13.6 17V17.7041C13.6 18.6675 13.3149 19.6094 12.7804 20.4111L11.6318 22.134C10.8099 23.3669 11.4374 25.0428 12.867 25.4327C17.5371 26.7064 22.463 26.7064 27.1331 25.4327C28.5627 25.0428 29.1902 23.3669 28.3682 22.134L27.2196 20.4111C26.6852 19.6094 26.4 18.6675 26.4 17.7041V17C26.4 13.4654 23.5347 10.6 20 10.6Z" fill="#4B4E4E" stroke="#4B4E4E" stroke-width="0.3"/>
</svg>
