<svg width="40" height="40" viewBox="0 0 40 40" fill="none" xmlns="http://www.w3.org/2000/svg">
<g clip-path="url(#clip0_9484_6028)">
<path fill-rule="evenodd" clip-rule="evenodd" d="M20 9.25C19.3953 9.25 18.8384 9.40029 18.2288 9.65242C17.6401 9.89588 16.9563 10.2547 16.1049 10.7015L14.0374 11.7865C12.9924 12.3349 12.1562 12.7737 11.5105 13.2049C10.8415 13.6516 10.3263 14.122 9.95112 14.7592C9.57718 15.3942 9.40896 16.0818 9.32829 16.9007C9.24999 17.6956 9.24999 18.6731 9.25 19.9026V20.0974C9.24999 21.3268 9.24999 22.3044 9.32829 23.0993C9.40896 23.9182 9.57718 24.6058 9.95112 25.2408C10.3263 25.878 10.8415 26.3484 11.5105 26.7951C12.1562 27.2263 12.9924 27.6651 14.0374 28.2135L16.1048 29.2984C16.9563 29.7453 17.6401 30.1041 18.2288 30.3476C18.8384 30.5997 19.3953 30.75 20 30.75C20.6047 30.75 21.1616 30.5997 21.7712 30.3476C22.3599 30.1041 23.0437 29.7453 23.8951 29.2985L25.9626 28.2135C27.0076 27.6651 27.8438 27.2263 28.4895 26.7951C29.1585 26.3484 29.6737 25.878 30.0489 25.2408C30.4228 24.6058 30.591 23.9182 30.6717 23.0993C30.75 22.3044 30.75 21.3269 30.75 20.0975V19.9025C30.75 18.6731 30.75 17.6956 30.6717 16.9007C30.591 16.0818 30.4228 15.3942 30.0489 14.7592C29.6737 14.122 29.1585 13.6516 28.4895 13.2049C27.8438 12.7737 27.0076 12.3349 25.9626 11.7865L23.8951 10.7015C23.0437 10.2547 22.3599 9.89589 21.7712 9.65242C21.1616 9.40029 20.6047 9.25 20 9.25ZM16.7708 12.0461C17.6605 11.5792 18.284 11.2528 18.802 11.0386C19.3062 10.83 19.6605 10.75 20 10.75C20.3395 10.75 20.6938 10.83 21.198 11.0386C21.716 11.2528 22.3395 11.5792 23.2292 12.0461L25.2292 13.0956C26.3189 13.6675 27.0845 14.0703 27.6565 14.4523C27.9387 14.6408 28.1604 14.8158 28.3395 14.9917L25.0088 16.6571L16.5089 12.1835L16.7708 12.0461ZM14.9447 13.0044L14.7708 13.0956C13.6811 13.6675 12.9155 14.0703 12.3435 14.4523C12.0613 14.6408 11.8396 14.8158 11.6605 14.9917L20 19.1615L23.3572 17.4829L15.1507 13.1637C15.071 13.1217 15.0019 13.0674 14.9447 13.0044ZM10.9377 16.3074C10.8872 16.5212 10.849 16.7641 10.8211 17.0478C10.7508 17.7606 10.75 18.6644 10.75 19.9415V20.0585C10.75 21.3356 10.7508 22.2394 10.8211 22.9522C10.8897 23.6494 11.0202 24.1002 11.2437 24.4797C11.4659 24.857 11.7873 25.1762 12.3435 25.5477C12.9155 25.9297 13.6811 26.3325 14.7708 26.9044L16.7708 27.9539C17.6605 28.4208 18.284 28.7472 18.802 28.9614C18.9656 29.0291 19.1134 29.0832 19.25 29.1255V20.4635L10.9377 16.3074ZM20.75 29.1255C20.8866 29.0832 21.0344 29.0291 21.198 28.9614C21.716 28.7472 22.3395 28.4208 23.2292 27.9539L25.2292 26.9044C26.3189 26.3325 27.0845 25.9297 27.6565 25.5477C28.2127 25.1762 28.5341 24.857 28.7563 24.4797C28.9798 24.1002 29.1103 23.6494 29.1789 22.9522C29.2492 22.2394 29.25 21.3356 29.25 20.0585V19.9415C29.25 18.6644 29.2492 17.7606 29.1789 17.0478C29.151 16.7641 29.1128 16.5212 29.0623 16.3074L25.75 17.9635V21C25.75 21.4142 25.4142 21.75 25 21.75C24.5858 21.75 24.25 21.4142 24.25 21V18.7135L20.75 20.4635V29.1255Z" fill="white"/>
</g>
<defs>
<clipPath id="clip0_9484_6028">
<rect width="40" height="40" rx="20" fill="white"/>
</clipPath>
</defs>
</svg>
