<svg width="40" height="40" viewBox="0 0 40 40" fill="none" xmlns="http://www.w3.org/2000/svg">
<g clip-path="url(#clip0_9489_6222)">
<path fill-rule="evenodd" clip-rule="evenodd" d="M22.3251 11.7502C22.2209 11.75 22.1126 11.75 22 11.75L18 11.75C17.8874 11.75 17.7791 11.75 17.675 11.7502C17.3766 13.2194 16.2194 14.3767 14.7502 14.675C14.75 14.7791 14.75 14.8874 14.75 15C14.75 15.1126 14.75 15.2209 14.7502 15.325C16.2194 15.6234 17.3766 16.7806 17.675 18.2498C17.7791 18.25 17.8874 18.25 18 18.25H22C22.1126 18.25 22.2208 18.25 22.325 18.2498C22.6233 16.7806 23.7806 15.6234 25.2498 15.3251C25.25 15.2209 25.25 15.1126 25.25 15C25.25 14.8874 25.25 14.7792 25.2498 14.675C23.7806 14.3767 22.6234 13.2194 22.3251 11.7502ZM22.9295 10.2533C22.655 10.25 22.3624 10.25 22.052 10.25L17.948 10.25C17.6376 10.25 17.345 10.25 17.0705 10.2533C17.0473 10.2511 17.0238 10.25 17 10.25C16.9686 10.25 16.9377 10.2519 16.9073 10.2557C16.4545 10.2637 16.0536 10.2831 15.7055 10.3299C15.0777 10.4143 14.5109 10.6 14.0555 11.0555C13.6 11.5109 13.4143 12.0777 13.3299 12.7055C13.2831 13.0536 13.2637 13.4545 13.2557 13.9073C13.2519 13.9377 13.25 13.9686 13.25 14C13.25 14.0238 13.2511 14.0473 13.2533 14.0705C13.25 14.345 13.25 14.6376 13.25 14.948V15.052C13.25 15.3624 13.25 15.655 13.2533 15.9295C13.2511 15.9527 13.25 15.9762 13.25 16C13.25 16.0314 13.2519 16.0623 13.2557 16.0927C13.2637 16.5455 13.2831 16.9464 13.3299 17.2945C13.4143 17.9223 13.6 18.4891 14.0555 18.9445C14.5109 19.4 15.0777 19.5857 15.7055 19.6701C16.0536 19.7169 16.4545 19.7363 16.9073 19.7443C16.9377 19.7481 16.9686 19.75 17 19.75C17.0238 19.75 17.0473 19.7489 17.0705 19.7467C17.345 19.75 17.6376 19.75 17.948 19.75H22.052C22.3624 19.75 22.655 19.75 22.9295 19.7467C22.9527 19.7489 22.9762 19.75 23 19.75C23.0314 19.75 23.0623 19.7481 23.0927 19.7443C23.5455 19.7363 23.9464 19.7169 24.2945 19.6701C24.9223 19.5857 25.4891 19.4 25.9445 18.9445C26.4 18.4891 26.5857 17.9223 26.6701 17.2945C26.7169 16.9464 26.7363 16.5455 26.7443 16.0927C26.7481 16.0623 26.75 16.0314 26.75 16C26.75 15.9762 26.7489 15.9527 26.7467 15.9295C26.75 15.655 26.75 15.3624 26.75 15.052V14.948C26.75 14.6376 26.75 14.345 26.7467 14.0705C26.7489 14.0473 26.75 14.0238 26.75 14C26.75 13.9686 26.7481 13.9377 26.7443 13.9073C26.7363 13.4545 26.7169 13.0536 26.6701 12.7055C26.5857 12.0777 26.4 11.5109 25.9445 11.0555C25.4891 10.6 24.9223 10.4143 24.2945 10.3299C23.9464 10.2831 23.5455 10.2637 23.0927 10.2557C23.0623 10.2519 23.0314 10.25 23 10.25C22.9762 10.25 22.9527 10.2511 22.9295 10.2533ZM23.8941 11.794C24.1219 12.3979 24.6021 12.8781 25.206 13.1059C25.1995 13.036 25.192 12.9692 25.1835 12.9054C25.1214 12.4439 25.0142 12.2464 24.8839 12.1161C24.7536 11.9858 24.5561 11.8786 24.0946 11.8165C24.0308 11.808 23.964 11.8005 23.8941 11.794ZM25.206 16.8941C24.6021 17.1219 24.1219 17.6021 23.8941 18.206C23.964 18.1995 24.0308 18.1921 24.0946 18.1835C24.5561 18.1214 24.7536 18.0142 24.8839 17.8839C25.0142 17.7536 25.1214 17.5561 25.1835 17.0946C25.192 17.0308 25.1995 16.964 25.206 16.8941ZM16.1059 18.206C15.8781 17.6021 15.3979 17.1219 14.794 16.8941C14.8005 16.964 14.808 17.0308 14.8165 17.0946C14.8786 17.5561 14.9858 17.7536 15.1161 17.8839C15.2464 18.0142 15.4439 18.1214 15.9054 18.1835C15.9692 18.1921 16.036 18.1995 16.1059 18.206ZM14.794 13.1059C15.3979 12.8781 15.8781 12.3979 16.1059 11.794C16.036 11.8005 15.9692 11.808 15.9054 11.8165C15.4439 11.8786 15.2464 11.9858 15.1161 12.1161C14.9858 12.2464 14.8786 12.4439 14.8165 12.9054C14.808 12.9692 14.8005 13.036 14.794 13.1059ZM20 14.75C19.8619 14.75 19.75 14.8619 19.75 15C19.75 15.1381 19.8619 15.25 20 15.25C20.1381 15.25 20.25 15.1381 20.25 15C20.25 14.8619 20.1381 14.75 20 14.75ZM18.25 15C18.25 14.0335 19.0335 13.25 20 13.25C20.9665 13.25 21.75 14.0335 21.75 15C21.75 15.9665 20.9665 16.75 20 16.75C19.0335 16.75 18.25 15.9665 18.25 15ZM16.6839 22.4482C18.5497 22.0867 20.5471 22.1678 22.1632 23.1318C22.3903 23.2672 22.603 23.4359 22.7887 23.6444C23.1646 24.0666 23.3587 24.5913 23.3679 25.1174C23.5591 24.994 23.7507 24.857 23.9454 24.71L25.7525 23.3448C26.6571 22.6615 27.9718 22.6614 28.8765 23.3445C29.7124 23.9757 30.0457 25.1085 29.4472 26.0677C29.0219 26.7495 28.3814 27.6925 27.7296 28.2962C27.0706 28.9065 26.1329 29.4196 25.4235 29.762C24.562 30.1778 23.6316 30.4077 22.7268 30.5541C20.8776 30.8535 18.9534 30.8077 17.125 30.431C16.1906 30.2384 15.2195 30.1384 14.2599 30.1384H12C11.5858 30.1384 11.25 29.8026 11.25 29.3884C11.25 28.9742 11.5858 28.6384 12 28.6384H14.2599C15.322 28.6384 16.3945 28.749 17.4277 28.9618C19.0797 29.3022 20.8201 29.3432 22.4871 29.0734C23.316 28.9392 24.0901 28.74 24.7715 28.4111C25.4549 28.0812 26.2232 27.6468 26.7103 27.1957C27.2028 26.7395 27.754 25.9479 28.1746 25.2738C28.3015 25.0703 28.284 24.7767 27.9726 24.5416C27.6029 24.2624 27.0263 24.2625 26.6567 24.5417L24.8495 25.9069C24.1281 26.4518 23.2401 27.0349 22.1387 27.2106C22.0276 27.2283 21.9118 27.2445 21.7917 27.2588C21.7344 27.2692 21.6748 27.276 21.6132 27.2783C21.0509 27.3342 20.3997 27.3472 19.6813 27.2793C19.2689 27.2404 18.9661 26.8745 19.0051 26.4621C19.044 26.0497 19.4099 25.747 19.8223 25.786C20.4497 25.8452 21.0126 25.8321 21.4902 25.7831C21.4999 25.7821 21.5096 25.7811 21.5192 25.7801C21.5391 25.7685 21.5696 25.7474 21.6096 25.7125C21.929 25.4336 21.9576 24.9667 21.6684 24.6418C21.5951 24.5595 21.5048 24.4856 21.3949 24.42C20.2137 23.7155 18.6362 23.5978 16.9692 23.9208C15.3117 24.2419 13.6649 24.9817 12.4339 25.8547C12.096 26.0943 11.6278 26.0146 11.3882 25.6768C11.1486 25.3389 11.2283 24.8708 11.5661 24.6311C12.9645 23.6395 14.8086 22.8115 16.6839 22.4482Z" fill="white"/>
</g>
<defs>
<clipPath id="clip0_9489_6222">
<rect width="40" height="40" rx="20" fill="white"/>
</clipPath>
</defs>
</svg>
