<svg width="20" height="20" viewBox="0 0 20 20" fill="none" xmlns="http://www.w3.org/2000/svg">
<path fill-rule="evenodd" clip-rule="evenodd" d="M4.77716 1.70226C5.7916 0.693575 7.46191 0.873121 8.31134 2.00777L9.36216 3.41144C10.0533 4.33468 9.99233 5.62502 9.17191 6.44078L8.97293 6.63863C8.96424 6.66387 8.94317 6.74322 8.96656 6.89401C9.01924 7.23359 9.30281 7.95393 10.4932 9.1376C11.6833 10.3209 12.4087 10.6041 12.7531 10.657C12.9092 10.6809 12.9908 10.6586 13.0161 10.6498L13.3561 10.3117C14.0854 9.58651 15.2061 9.45095 16.1092 9.94183L17.7012 10.8073C19.0645 11.5484 19.409 13.4015 18.292 14.5121L17.1082 15.6892C16.7353 16.06 16.2337 16.3693 15.6215 16.4264C14.114 16.5669 10.5988 16.3876 6.90541 12.7151C3.45715 9.28642 2.79543 6.29643 2.71171 4.82323L3.3357 4.78777L2.71171 4.82323C2.66937 4.07831 3.02139 3.44806 3.46915 3.00283L4.77716 1.70226ZM7.31068 2.75689C6.88849 2.19294 6.10159 2.1481 5.65852 2.58866L4.35052 3.88923C4.07558 4.1626 3.9433 4.46388 3.95969 4.75231C4.02622 5.92281 4.56063 8.62088 7.78678 11.8287C11.1713 15.194 14.2973 15.2944 15.5055 15.1818C15.7524 15.1587 15.9979 15.0305 16.2269 14.8028L17.4107 13.6257C17.8919 13.1472 17.7857 12.276 17.1042 11.9055L15.5121 11.0401C15.0725 10.8011 14.5575 10.8799 14.2374 11.1981L13.8579 11.5755L13.4172 11.1323C13.8579 11.5755 13.8573 11.5761 13.8567 11.5767L13.8555 11.5779L13.853 11.5804L13.8475 11.5856L13.8353 11.5969C13.8266 11.6049 13.8165 11.6137 13.8052 11.6231C13.7826 11.6418 13.7548 11.663 13.7215 11.6853C13.6548 11.73 13.5667 11.7786 13.456 11.8199C13.2302 11.904 12.9326 11.9491 12.5636 11.8925C11.8413 11.7817 10.8844 11.2893 9.61188 10.024C8.33981 8.75915 7.8432 7.80671 7.73134 7.08564C7.67414 6.71693 7.71976 6.41918 7.80487 6.1933C7.84658 6.0826 7.89573 5.99458 7.94084 5.928C7.96333 5.8948 7.98475 5.86704 8.00364 5.84449C8.01309 5.83322 8.02192 5.82323 8.02995 5.81451L8.04139 5.80235L8.04663 5.79697L8.04913 5.79445L8.05034 5.79323C8.05094 5.79264 8.05153 5.79204 8.49222 6.23524L8.05153 5.79204L8.29055 5.55439C8.64771 5.19925 8.69774 4.60971 8.3615 4.16056L7.31068 2.75689Z" fill="#B1B4B4" stroke="#B1B4B4" stroke-width="0.3" stroke-linecap="round"/>
</svg>
