<svg width="40" height="40" viewBox="0 0 40 40" fill="none" xmlns="http://www.w3.org/2000/svg">
<g clip-path="url(#clip0_9489_6194)">
<path fill-rule="evenodd" clip-rule="evenodd" d="M14.448 9.75C13.5495 9.74997 12.8003 9.74995 12.2055 9.82991C11.5777 9.91432 11.0109 10.1 10.5555 10.5555C10.1 11.0109 9.91432 11.5777 9.82991 12.2055C9.74995 12.8003 9.74997 13.5495 9.75 14.448V14.552C9.74997 15.4505 9.74995 16.1997 9.82991 16.7945C9.91432 17.4223 10.1 17.9891 10.5555 18.4445C11.0109 18.9 11.5777 19.0857 12.2055 19.1701C12.8003 19.2501 13.5495 19.25 14.448 19.25H14.552C15.4505 19.25 16.1997 19.2501 16.7945 19.1701C17.4223 19.0857 17.9891 18.9 18.4445 18.4445C18.9 17.9891 19.0857 17.4223 19.1701 16.7945C19.2501 16.1997 19.25 15.4505 19.25 14.552V14.448C19.25 13.5495 19.2501 12.8003 19.1701 12.2055C19.0857 11.5777 18.9 11.0109 18.4445 10.5555C17.9891 10.1 17.4223 9.91432 16.7945 9.82991C16.1997 9.74995 15.4505 9.74997 14.552 9.75H14.448ZM11.6161 11.6161C11.7464 11.4858 11.9439 11.3786 12.4054 11.3165C12.8884 11.2516 13.536 11.25 14.5 11.25C15.464 11.25 16.1116 11.2516 16.5946 11.3165C17.0561 11.3786 17.2536 11.4858 17.3839 11.6161C17.5142 11.7464 17.6214 11.9439 17.6835 12.4054C17.7484 12.8884 17.75 13.536 17.75 14.5C17.75 15.464 17.7484 16.1116 17.6835 16.5946C17.6214 17.0561 17.5142 17.2536 17.3839 17.3839C17.2536 17.5142 17.0561 17.6214 16.5946 17.6835C16.1116 17.7484 15.464 17.75 14.5 17.75C13.536 17.75 12.8884 17.7484 12.4054 17.6835C11.9439 17.6214 11.7464 17.5142 11.6161 17.3839C11.4858 17.2536 11.3786 17.0561 11.3165 16.5946C11.2516 16.1116 11.25 15.464 11.25 14.5C11.25 13.536 11.2516 12.8884 11.3165 12.4054C11.3786 11.9439 11.4858 11.7464 11.6161 11.6161Z" fill="white"/>
<path fill-rule="evenodd" clip-rule="evenodd" d="M25.448 20.75C24.5495 20.75 23.8003 20.7499 23.2055 20.8299C22.5777 20.9143 22.0109 21.1 21.5555 21.5555C21.1 22.0109 20.9143 22.5777 20.8299 23.2055C20.7499 23.8003 20.75 24.5495 20.75 25.448V25.552C20.75 26.4505 20.7499 27.1997 20.8299 27.7945C20.9143 28.4223 21.1 28.9891 21.5555 29.4445C22.0109 29.9 22.5777 30.0857 23.2055 30.1701C23.8003 30.2501 24.5495 30.25 25.4479 30.25H25.552C26.4504 30.25 27.1997 30.2501 27.7945 30.1701C28.4223 30.0857 28.9891 29.9 29.4445 29.4445C29.9 28.9891 30.0857 28.4223 30.1701 27.7945C30.2501 27.1997 30.25 26.4505 30.25 25.5521V25.448C30.25 24.5496 30.2501 23.8003 30.1701 23.2055C30.0857 22.5777 29.9 22.0109 29.4445 21.5555C28.9891 21.1 28.4223 20.9143 27.7945 20.8299C27.1997 20.7499 26.4505 20.75 25.552 20.75H25.448ZM22.6161 22.6161C22.7464 22.4858 22.9439 22.3786 23.4054 22.3165C23.8884 22.2516 24.536 22.25 25.5 22.25C26.464 22.25 27.1116 22.2516 27.5946 22.3165C28.0561 22.3786 28.2536 22.4858 28.3839 22.6161C28.5142 22.7464 28.6214 22.9439 28.6835 23.4054C28.7484 23.8884 28.75 24.536 28.75 25.5C28.75 26.464 28.7484 27.1116 28.6835 27.5946C28.6214 28.0561 28.5142 28.2536 28.3839 28.3839C28.2536 28.5142 28.0561 28.6214 27.5946 28.6835C27.1116 28.7484 26.464 28.75 25.5 28.75C24.536 28.75 23.8884 28.7484 23.4054 28.6835C22.9439 28.6214 22.7464 28.5142 22.6161 28.3839C22.4858 28.2536 22.3786 28.0561 22.3165 27.5946C22.2516 27.1116 22.25 26.464 22.25 25.5C22.25 24.536 22.2516 23.8884 22.3165 23.4054C22.3786 22.9439 22.4858 22.7464 22.6161 22.6161Z" fill="white"/>
<path fill-rule="evenodd" clip-rule="evenodd" d="M14.448 20.75H14.552C15.4505 20.75 16.1997 20.7499 16.7945 20.8299C17.4223 20.9143 17.9891 21.1 18.4445 21.5555C18.9 22.0109 19.0857 22.5777 19.1701 23.2055C19.2501 23.8003 19.25 24.5495 19.25 25.448V25.552C19.25 26.4505 19.2501 27.1997 19.1701 27.7945C19.0857 28.4223 18.9 28.9891 18.4445 29.4445C17.9891 29.9 17.4223 30.0857 16.7945 30.1701C16.1997 30.2501 15.4505 30.25 14.5521 30.25H14.448C13.5496 30.25 12.8003 30.2501 12.2055 30.1701C11.5777 30.0857 11.0109 29.9 10.5555 29.4445C10.1 28.9891 9.91432 28.4223 9.82991 27.7945C9.74995 27.1997 9.74997 26.4505 9.75 25.552V25.448C9.74997 24.5495 9.74995 23.8003 9.82991 23.2055C9.91432 22.5777 10.1 22.0109 10.5555 21.5555C11.0109 21.1 11.5777 20.9143 12.2055 20.8299C12.8003 20.7499 13.5495 20.75 14.448 20.75ZM12.4054 22.3165C11.9439 22.3786 11.7464 22.4858 11.6161 22.6161C11.4858 22.7464 11.3786 22.9439 11.3165 23.4054C11.2516 23.8884 11.25 24.536 11.25 25.5C11.25 26.464 11.2516 27.1116 11.3165 27.5946C11.3786 28.0561 11.4858 28.2536 11.6161 28.3839C11.7464 28.5142 11.9439 28.6214 12.4054 28.6835C12.8884 28.7484 13.536 28.75 14.5 28.75C15.464 28.75 16.1116 28.7484 16.5946 28.6835C17.0561 28.6214 17.2536 28.5142 17.3839 28.3839C17.5142 28.2536 17.6214 28.0561 17.6835 27.5946C17.7484 27.1116 17.75 26.464 17.75 25.5C17.75 24.536 17.7484 23.8884 17.6835 23.4054C17.6214 22.9439 17.5142 22.7464 17.3839 22.6161C17.2536 22.4858 17.0561 22.3786 16.5946 22.3165C16.1116 22.2516 15.464 22.25 14.5 22.25C13.536 22.25 12.8884 22.2516 12.4054 22.3165Z" fill="white"/>
<path fill-rule="evenodd" clip-rule="evenodd" d="M25.448 9.75C24.5495 9.74997 23.8003 9.74995 23.2055 9.82991C22.5777 9.91432 22.0109 10.1 21.5555 10.5555C21.1 11.0109 20.9143 11.5777 20.8299 12.2055C20.7499 12.8003 20.75 13.5495 20.75 14.448V14.552C20.75 15.4505 20.7499 16.1997 20.8299 16.7945C20.9143 17.4223 21.1 17.9891 21.5555 18.4445C22.0109 18.9 22.5777 19.0857 23.2055 19.1701C23.8003 19.2501 24.5495 19.25 25.448 19.25H25.552C26.4505 19.25 27.1997 19.2501 27.7945 19.1701C28.4223 19.0857 28.9891 18.9 29.4445 18.4445C29.9 17.9891 30.0857 17.4223 30.1701 16.7945C30.2501 16.1997 30.25 15.4505 30.25 14.552V14.448C30.25 13.5495 30.2501 12.8003 30.1701 12.2055C30.0857 11.5777 29.9 11.0109 29.4445 10.5555C28.9891 10.1 28.4223 9.91432 27.7945 9.82991C27.1997 9.74995 26.4505 9.74997 25.552 9.75H25.448ZM22.6161 11.6161C22.7464 11.4858 22.9439 11.3786 23.4054 11.3165C23.8884 11.2516 24.536 11.25 25.5 11.25C26.464 11.25 27.1116 11.2516 27.5946 11.3165C28.0561 11.3786 28.2536 11.4858 28.3839 11.6161C28.5142 11.7464 28.6214 11.9439 28.6835 12.4054C28.7484 12.8884 28.75 13.536 28.75 14.5C28.75 15.464 28.7484 16.1116 28.6835 16.5946C28.6214 17.0561 28.5142 17.2536 28.3839 17.3839C28.2536 17.5142 28.0561 17.6214 27.5946 17.6835C27.1116 17.7484 26.464 17.75 25.5 17.75C24.536 17.75 23.8884 17.7484 23.4054 17.6835C22.9439 17.6214 22.7464 17.5142 22.6161 17.3839C22.4858 17.2536 22.3786 17.0561 22.3165 16.5946C22.2516 16.1116 22.25 15.464 22.25 14.5C22.25 13.536 22.2516 12.8884 22.3165 12.4054C22.3786 11.9439 22.4858 11.7464 22.6161 11.6161Z" fill="white"/>
</g>
<defs>
<clipPath id="clip0_9489_6194">
<rect width="40" height="40" rx="20" fill="white"/>
</clipPath>
</defs>
</svg>
