<svg width="40" height="40" viewBox="0 0 40 40" fill="none" xmlns="http://www.w3.org/2000/svg">
<g clip-path="url(#clip0_9489_6203)">
<path d="M17.2587 15.974C17.5631 15.693 17.5821 15.2185 17.3011 14.9141C17.0201 14.6098 16.5457 14.5908 16.2413 14.8717L13.9913 16.9487C13.8375 17.0907 13.75 17.2905 13.75 17.4998C13.75 17.7091 13.8375 17.9089 13.9913 18.0509L16.2413 20.1278C16.5457 20.4088 17.0201 20.3898 17.3011 20.0854C17.5821 19.781 17.5631 19.3065 17.2587 19.0256L16.4182 18.2498H22.0385C23.536 18.2498 24.75 19.4638 24.75 20.9613C24.75 22.4589 23.536 23.6729 22.0385 23.6729H17.5C17.0858 23.6729 16.75 24.0086 16.75 24.4229C16.75 24.8371 17.0858 25.1729 17.5 25.1729H22.0385C24.3644 25.1729 26.25 23.2873 26.25 20.9613C26.25 18.6353 24.3644 16.7498 22.0385 16.7498H16.4182L17.2587 15.974Z" fill="white"/>
<path fill-rule="evenodd" clip-rule="evenodd" d="M19.9426 9.25C17.6342 9.24999 15.8252 9.24998 14.4137 9.43975C12.969 9.63399 11.8289 10.0393 10.9341 10.9341C10.0393 11.8289 9.63399 12.969 9.43975 14.4137C9.24998 15.8252 9.24999 17.6342 9.25 19.9426V20.0574C9.24999 22.3658 9.24998 24.1748 9.43975 25.5863C9.63399 27.031 10.0393 28.1711 10.9341 29.0659C11.8289 29.9607 12.969 30.366 14.4137 30.5603C15.8252 30.75 17.6342 30.75 19.9426 30.75H20.0574C22.3658 30.75 24.1748 30.75 25.5863 30.5603C27.031 30.366 28.1711 29.9607 29.0659 29.0659C29.9607 28.1711 30.366 27.031 30.5603 25.5863C30.75 24.1748 30.75 22.3658 30.75 20.0574V19.9426C30.75 17.6342 30.75 15.8252 30.5603 14.4137C30.366 12.969 29.9607 11.8289 29.0659 10.9341C28.1711 10.0393 27.031 9.63399 25.5863 9.43975C24.1748 9.24998 22.3658 9.24999 20.0574 9.25H19.9426ZM11.9948 11.9948C12.5645 11.4251 13.3352 11.0982 14.6136 10.9264C15.9136 10.7516 17.6218 10.75 20 10.75C22.3782 10.75 24.0864 10.7516 25.3864 10.9264C26.6648 11.0982 27.4355 11.4251 28.0052 11.9948C28.5749 12.5645 28.9018 13.3352 29.0736 14.6136C29.2484 15.9136 29.25 17.6218 29.25 20C29.25 22.3782 29.2484 24.0864 29.0736 25.3864C28.9018 26.6648 28.5749 27.4355 28.0052 28.0052C27.4355 28.5749 26.6648 28.9018 25.3864 29.0736C24.0864 29.2484 22.3782 29.25 20 29.25C17.6218 29.25 15.9136 29.2484 14.6136 29.0736C13.3352 28.9018 12.5645 28.5749 11.9948 28.0052C11.4251 27.4355 11.0982 26.6648 10.9264 25.3864C10.7516 24.0864 10.75 22.3782 10.75 20C10.75 17.6218 10.7516 15.9136 10.9264 14.6136C11.0982 13.3352 11.4251 12.5645 11.9948 11.9948Z" fill="white"/>
</g>
<defs>
<clipPath id="clip0_9489_6203">
<rect width="40" height="40" rx="20" fill="white"/>
</clipPath>
</defs>
</svg>
