<svg width="40" height="40" viewBox="0 0 40 40" fill="none" xmlns="http://www.w3.org/2000/svg">
<g clip-path="url(#clip0_9498_18646)">
<path fill-rule="evenodd" clip-rule="evenodd" d="M20 16.25C17.9289 16.25 16.25 17.9289 16.25 20C16.25 22.0711 17.9289 23.75 20 23.75C22.0711 23.75 23.75 22.0711 23.75 20C23.75 17.9289 22.0711 16.25 20 16.25ZM17.75 20C17.75 18.7574 18.7574 17.75 20 17.75C21.2426 17.75 22.25 18.7574 22.25 20C22.25 21.2426 21.2426 22.25 20 22.25C18.7574 22.25 17.75 21.2426 17.75 20Z" fill="white"/>
<path fill-rule="evenodd" clip-rule="evenodd" d="M19.9747 9.25C19.5303 9.24999 19.1592 9.24999 18.8546 9.27077C18.5375 9.29241 18.238 9.33905 17.9476 9.45933C17.2738 9.73844 16.7384 10.2738 16.4593 10.9476C16.314 11.2984 16.2747 11.6681 16.2596 12.07C16.2476 12.393 16.0845 12.6625 15.844 12.8014C15.6034 12.9403 15.2884 12.9467 15.0027 12.7957C14.6471 12.6078 14.3073 12.457 13.9308 12.4074C13.2077 12.3122 12.4764 12.5082 11.8978 12.9522C11.6484 13.1435 11.4583 13.3796 11.281 13.6434C11.1107 13.8968 10.9252 14.2181 10.7029 14.6031L10.6777 14.6468C10.4555 15.0317 10.2699 15.353 10.1356 15.6272C9.99581 15.9127 9.88644 16.1954 9.84541 16.507C9.75021 17.2301 9.94617 17.9614 10.3902 18.5401C10.6213 18.8412 10.9217 19.0602 11.2622 19.2741C11.5359 19.4461 11.6879 19.7221 11.6879 20C11.6878 20.2778 11.5359 20.5538 11.2622 20.7258C10.9217 20.9397 10.6212 21.1587 10.3901 21.4599C9.94607 22.0385 9.75012 22.7698 9.84531 23.4929C9.88634 23.8045 9.99571 24.0873 10.1355 24.3727C10.2698 24.6469 10.4553 24.9682 10.6776 25.3531L10.7028 25.3969C10.9251 25.7818 11.1106 26.1031 11.2809 26.3565C11.4582 26.6203 11.6483 26.8564 11.8977 27.0477C12.4763 27.4917 13.2076 27.6877 13.9307 27.5925C14.3072 27.5429 14.647 27.3922 15.0025 27.2043C15.2883 27.0532 15.6033 27.0596 15.8439 27.1986C16.0845 27.3375 16.2476 27.607 16.2596 27.9301C16.2747 28.3319 16.314 28.7016 16.4593 29.0524C16.7384 29.7262 17.2738 30.2616 17.9476 30.5407C18.238 30.661 18.5375 30.7076 18.8546 30.7292C19.1592 30.75 19.5303 30.75 19.9747 30.75H20.0252C20.4697 30.75 20.8407 30.75 21.1454 30.7292C21.4625 30.7076 21.762 30.661 22.0524 30.5407C22.7262 30.2616 23.2616 29.7262 23.5407 29.0524C23.686 28.7016 23.7253 28.3319 23.7403 27.93C23.7524 27.607 23.9154 27.3375 24.156 27.1985C24.3966 27.0596 24.7116 27.0532 24.9974 27.2042C25.3529 27.3921 25.6927 27.5429 26.0692 27.5924C26.7923 27.6876 27.5236 27.4917 28.1022 27.0477C28.3516 26.8563 28.5417 26.6203 28.719 26.3565C28.8893 26.1031 29.0748 25.7818 29.297 25.3969L29.3223 25.3531C29.5445 24.9682 29.7301 24.6468 29.8644 24.3726C30.0042 24.0872 30.1135 23.8045 30.1546 23.4929C30.2498 22.7697 30.0538 22.0384 29.6098 21.4598C29.3787 21.1586 29.0782 20.9397 28.7378 20.7258C28.464 20.5538 28.3121 20.2778 28.3121 19.9999C28.3121 19.7221 28.464 19.4462 28.7377 19.2742C29.0783 19.0603 29.3788 18.8414 29.6099 18.5401C30.0539 17.9615 30.2499 17.2302 30.1547 16.5071C30.1136 16.1955 30.0043 15.9127 29.8645 15.6273C29.7302 15.3531 29.5447 15.0318 29.3224 14.647L29.2972 14.6032C29.0749 14.2183 28.8894 13.8969 28.7191 13.6435C28.5418 13.3797 28.3517 13.1436 28.1023 12.9523C27.5237 12.5083 26.7924 12.3123 26.0692 12.4075C25.6928 12.4571 25.353 12.6078 24.9975 12.7957C24.7117 12.9468 24.3967 12.9404 24.1561 12.8014C23.9155 12.6625 23.7524 12.393 23.7403 12.0699C23.7253 11.6681 23.686 11.2984 23.5407 10.9476C23.2616 10.2738 22.7262 9.73844 22.0524 9.45933C21.762 9.33905 21.4625 9.29241 21.1454 9.27077C20.8407 9.24999 20.4697 9.24999 20.0252 9.25H19.9747ZM18.5216 10.8452C18.5988 10.8132 18.716 10.7837 18.9567 10.7673C19.2042 10.7504 19.5238 10.75 20 10.75C20.4762 10.75 20.7958 10.7504 21.0432 10.7673C21.284 10.7837 21.4012 10.8132 21.4783 10.8452C21.7846 10.972 22.028 11.2154 22.1548 11.5216C22.1949 11.6183 22.228 11.7689 22.2414 12.126C22.271 12.9183 22.68 13.6813 23.4061 14.1005C24.1321 14.5197 24.9974 14.4924 25.6984 14.1219C26.0143 13.9549 26.1614 13.9083 26.265 13.8947C26.5937 13.8514 26.9261 13.9405 27.1891 14.1423C27.2554 14.1931 27.3395 14.2799 27.4741 14.4802C27.6125 14.686 27.7726 14.9626 28.0107 15.375C28.2488 15.7874 28.4083 16.0644 28.5174 16.2871C28.6235 16.5038 28.6566 16.6201 28.6675 16.7029C28.7108 17.0316 28.6217 17.364 28.4199 17.627C28.3562 17.71 28.2424 17.814 27.9397 18.0041C27.2684 18.426 26.8122 19.1616 26.8121 19.9999C26.8121 20.8383 27.2683 21.574 27.9397 21.9959C28.2423 22.186 28.3561 22.29 28.4198 22.373C28.6216 22.636 28.7107 22.9684 28.6674 23.2971C28.6565 23.3799 28.6234 23.4961 28.5173 23.7128C28.4082 23.9355 28.2487 24.2125 28.0106 24.6249C27.7725 25.0373 27.6124 25.3139 27.474 25.5198C27.3394 25.72 27.2553 25.8068 27.189 25.8576C26.926 26.0595 26.5936 26.1485 26.2649 26.1053C26.1613 26.0916 26.0142 26.045 25.6983 25.8781C24.9973 25.5075 24.132 25.4803 23.4059 25.8995C22.68 26.3187 22.271 27.0816 22.2414 27.874C22.228 28.2311 22.1949 28.3817 22.1548 28.4784C22.028 28.7846 21.7846 29.028 21.4783 29.1549C21.4012 29.1868 21.284 29.2163 21.0432 29.2327C20.7958 29.2496 20.4762 29.25 20 29.25C19.5238 29.25 19.2042 29.2496 18.9567 29.2327C18.716 29.2163 18.5988 29.1868 18.5216 29.1549C18.2154 29.028 17.972 28.7846 17.8451 28.4784C17.8051 28.3817 17.7719 28.2311 17.7586 27.874C17.729 27.0817 17.32 26.3187 16.5939 25.8995C15.8678 25.4803 15.0026 25.5076 14.3016 25.8781C13.9856 26.0451 13.8386 26.0917 13.7349 26.1053C13.4063 26.1486 13.0738 26.0595 12.8108 25.8577C12.7446 25.8069 12.6604 25.7201 12.5259 25.5198C12.3875 25.314 12.2274 25.0374 11.9893 24.625C11.7512 24.2126 11.5917 23.9356 11.4826 23.7129C11.3765 23.4962 11.3434 23.3799 11.3325 23.2971C11.2892 22.9684 11.3783 22.636 11.5801 22.373C11.6438 22.2901 11.7576 22.186 12.0602 21.9959C12.7316 21.5741 13.1878 20.8384 13.1879 20.0001C13.1879 19.1616 12.7317 18.4259 12.0602 18.004C11.7577 17.8139 11.6438 17.7099 11.5802 17.6269C11.3784 17.3639 11.2893 17.0315 11.3326 16.7028C11.3435 16.62 11.3766 16.5038 11.4827 16.2871C11.5918 16.0643 11.7513 15.7873 11.9894 15.3749C12.2275 14.9625 12.3876 14.686 12.526 14.4801C12.6605 14.2798 12.7447 14.1931 12.8109 14.1422C13.0739 13.9404 13.4064 13.8513 13.735 13.8946C13.8387 13.9083 13.9858 13.9548 14.3017 14.1218C15.0027 14.4924 15.8679 14.5196 16.5939 14.1005C17.32 13.6813 17.729 12.9184 17.7586 12.126C17.7719 11.7689 17.8051 11.6183 17.8451 11.5216C17.972 11.2154 18.2154 10.972 18.5216 10.8452Z" fill="white"/>
</g>
<defs>
<clipPath id="clip0_9498_18646">
<rect width="40" height="40" rx="20" fill="white"/>
</clipPath>
</defs>
</svg>
