<svg width="16" height="16" viewBox="0 0 16 16" fill="none" xmlns="http://www.w3.org/2000/svg">
<g clip-path="url(#clip0_9630_8679)">
<path d="M10.687 6.68705C10.8823 6.49179 10.8823 6.1752 10.687 5.97994C10.4918 5.78468 10.1752 5.78468 9.97994 5.97994L7.00016 8.95972L6.02038 7.97994C5.82512 7.78468 5.50854 7.78468 5.31328 7.97994C5.11801 8.17521 5.11801 8.49179 5.31328 8.68705L6.64661 10.0204C6.84187 10.2156 7.15845 10.2156 7.35372 10.0204L10.687 6.68705Z" fill="#12B76A"/>
<path fill-rule="evenodd" clip-rule="evenodd" d="M8.00016 0.833496C4.04212 0.833496 0.833496 4.04212 0.833496 8.00016C0.833496 11.9582 4.04212 15.1668 8.00016 15.1668C11.9582 15.1668 15.1668 11.9582 15.1668 8.00016C15.1668 4.04212 11.9582 0.833496 8.00016 0.833496ZM1.8335 8.00016C1.8335 4.59441 4.59441 1.8335 8.00016 1.8335C11.4059 1.8335 14.1668 4.59441 14.1668 8.00016C14.1668 11.4059 11.4059 14.1668 8.00016 14.1668C4.59441 14.1668 1.8335 11.4059 1.8335 8.00016Z" fill="#12B76A"/>
</g>
<defs>
<clipPath id="clip0_9630_8679">
<rect width="16" height="16" fill="white"/>
</clipPath>
</defs>
</svg>
