<svg width="20" height="20" viewBox="0 0 20 20" fill="none" xmlns="http://www.w3.org/2000/svg">
<path fill-rule="evenodd" clip-rule="evenodd" d="M9.99967 1.04199C7.81355 1.04199 6.04134 2.8142 6.04134 5.00033C6.04134 7.18645 7.81355 8.95866 9.99967 8.95866C12.1858 8.95866 13.958 7.18645 13.958 5.00033C13.958 2.8142 12.1858 1.04199 9.99967 1.04199ZM7.29134 5.00033C7.29134 3.50455 8.5039 2.29199 9.99967 2.29199C11.4954 2.29199 12.708 3.50455 12.708 5.00033C12.708 6.4961 11.4954 7.70866 9.99967 7.70866C8.5039 7.70866 7.29134 6.4961 7.29134 5.00033Z" fill="#4B4E4E"/>
<path d="M14.9997 2.70866C14.6545 2.70866 14.3747 2.98848 14.3747 3.33366C14.3747 3.67884 14.6545 3.95866 14.9997 3.95866C16.1467 3.95866 16.8747 4.71343 16.8747 5.41699C16.8747 6.12055 16.1467 6.87533 14.9997 6.87533C14.6545 6.87533 14.3747 7.15515 14.3747 7.50033C14.3747 7.8455 14.6545 8.12533 14.9997 8.12533C16.614 8.12533 18.1247 7.01462 18.1247 5.41699C18.1247 3.81936 16.614 2.70866 14.9997 2.70866Z" fill="#4B4E4E"/>
<path d="M5.62467 3.33366C5.62467 2.98848 5.34485 2.70866 4.99967 2.70866C3.38532 2.70866 1.87467 3.81936 1.87467 5.41699C1.87467 7.01462 3.38532 8.12533 4.99967 8.12533C5.34485 8.12533 5.62467 7.8455 5.62467 7.50033C5.62467 7.15515 5.34485 6.87533 4.99967 6.87533C3.8526 6.87533 3.12467 6.12055 3.12467 5.41699C3.12467 4.71343 3.8526 3.95866 4.99967 3.95866C5.34485 3.95866 5.62467 3.67884 5.62467 3.33366Z" fill="#4B4E4E"/>
<path fill-rule="evenodd" clip-rule="evenodd" d="M9.99967 10.2087C8.51278 10.2087 7.13838 10.6093 6.11745 11.2899C5.10089 11.9676 4.37467 12.9725 4.37467 14.167C4.37467 15.3615 5.10089 16.3663 6.11745 17.044C7.13838 17.7247 8.51278 18.1253 9.99967 18.1253C11.4866 18.1253 12.861 17.7247 13.8819 17.044C14.8985 16.3663 15.6247 15.3615 15.6247 14.167C15.6247 12.9725 14.8985 11.9676 13.8819 11.2899C12.861 10.6093 11.4866 10.2087 9.99967 10.2087ZM5.62467 14.167C5.62467 13.5205 6.01775 12.8587 6.81083 12.33C7.59954 11.8042 8.72514 11.4587 9.99967 11.4587C11.2742 11.4587 12.3998 11.8042 13.1885 12.33C13.9816 12.8587 14.3747 13.5205 14.3747 14.167C14.3747 14.8135 13.9816 15.4753 13.1885 16.004C12.3998 16.5298 11.2742 16.8753 9.99967 16.8753C8.72514 16.8753 7.59954 16.5298 6.81083 16.004C6.01775 15.4753 5.62467 14.8135 5.62467 14.167Z" fill="#4B4E4E"/>
<path d="M16.0558 11.5331C16.1298 11.1959 16.4631 10.9826 16.8002 11.0565C17.6018 11.2323 18.3241 11.5498 18.8603 11.9886C19.3961 12.427 19.7913 13.0297 19.7913 13.7503C19.7913 14.471 19.3961 15.0736 18.8603 15.5121C18.3241 15.9509 17.6018 16.2684 16.8002 16.4442C16.4631 16.5181 16.1298 16.3047 16.0558 15.9675C15.9819 15.6304 16.1953 15.2971 16.5325 15.2232C17.1928 15.0784 17.7205 14.8296 18.0687 14.5447C18.4175 14.2593 18.5413 13.9806 18.5413 13.7503C18.5413 13.5201 18.4175 13.2414 18.0687 12.956C17.7205 12.671 17.1928 12.4223 16.5325 12.2775C16.1953 12.2035 15.9819 11.8703 16.0558 11.5331Z" fill="#4B4E4E"/>
<path d="M3.19913 11.0565C3.5363 10.9826 3.86956 11.1959 3.9435 11.5331C4.01744 11.8703 3.80405 12.2035 3.46689 12.2775C2.80658 12.4223 2.27888 12.671 1.93061 12.956C1.58186 13.2414 1.45801 13.5201 1.45801 13.7503C1.45801 13.9806 1.58186 14.2593 1.93061 14.5447C2.27888 14.8296 2.80658 15.0784 3.46689 15.2232C3.80405 15.2971 4.01744 15.6304 3.9435 15.9675C3.86956 16.3047 3.5363 16.5181 3.19913 16.4442C2.39756 16.2684 1.67526 15.9509 1.139 15.5121C0.603215 15.0736 0.208008 14.471 0.208008 13.7503C0.208008 13.0297 0.603215 12.427 1.139 11.9886C1.67526 11.5498 2.39756 11.2323 3.19913 11.0565Z" fill="#4B4E4E"/>
<path fill-rule="evenodd" clip-rule="evenodd" d="M9.99967 1.04199C7.81355 1.04199 6.04134 2.8142 6.04134 5.00033C6.04134 7.18645 7.81355 8.95866 9.99967 8.95866C12.1858 8.95866 13.958 7.18645 13.958 5.00033C13.958 2.8142 12.1858 1.04199 9.99967 1.04199ZM7.29134 5.00033C7.29134 3.50455 8.5039 2.29199 9.99967 2.29199C11.4954 2.29199 12.708 3.50455 12.708 5.00033C12.708 6.4961 11.4954 7.70866 9.99967 7.70866C8.5039 7.70866 7.29134 6.4961 7.29134 5.00033Z" stroke="#4B4E4E" stroke-width="0.3"/>
<path d="M14.9997 2.70866C14.6545 2.70866 14.3747 2.98848 14.3747 3.33366C14.3747 3.67884 14.6545 3.95866 14.9997 3.95866C16.1467 3.95866 16.8747 4.71343 16.8747 5.41699C16.8747 6.12055 16.1467 6.87533 14.9997 6.87533C14.6545 6.87533 14.3747 7.15515 14.3747 7.50033C14.3747 7.8455 14.6545 8.12533 14.9997 8.12533C16.614 8.12533 18.1247 7.01462 18.1247 5.41699C18.1247 3.81936 16.614 2.70866 14.9997 2.70866Z" stroke="#4B4E4E" stroke-width="0.3"/>
<path d="M5.62467 3.33366C5.62467 2.98848 5.34485 2.70866 4.99967 2.70866C3.38532 2.70866 1.87467 3.81936 1.87467 5.41699C1.87467 7.01462 3.38532 8.12533 4.99967 8.12533C5.34485 8.12533 5.62467 7.8455 5.62467 7.50033C5.62467 7.15515 5.34485 6.87533 4.99967 6.87533C3.8526 6.87533 3.12467 6.12055 3.12467 5.41699C3.12467 4.71343 3.8526 3.95866 4.99967 3.95866C5.34485 3.95866 5.62467 3.67884 5.62467 3.33366Z" stroke="#4B4E4E" stroke-width="0.3"/>
<path fill-rule="evenodd" clip-rule="evenodd" d="M9.99967 10.2087C8.51278 10.2087 7.13838 10.6093 6.11745 11.2899C5.10089 11.9676 4.37467 12.9725 4.37467 14.167C4.37467 15.3615 5.10089 16.3663 6.11745 17.044C7.13838 17.7247 8.51278 18.1253 9.99967 18.1253C11.4866 18.1253 12.861 17.7247 13.8819 17.044C14.8985 16.3663 15.6247 15.3615 15.6247 14.167C15.6247 12.9725 14.8985 11.9676 13.8819 11.2899C12.861 10.6093 11.4866 10.2087 9.99967 10.2087ZM5.62467 14.167C5.62467 13.5205 6.01775 12.8587 6.81083 12.33C7.59954 11.8042 8.72514 11.4587 9.99967 11.4587C11.2742 11.4587 12.3998 11.8042 13.1885 12.33C13.9816 12.8587 14.3747 13.5205 14.3747 14.167C14.3747 14.8135 13.9816 15.4753 13.1885 16.004C12.3998 16.5298 11.2742 16.8753 9.99967 16.8753C8.72514 16.8753 7.59954 16.5298 6.81083 16.004C6.01775 15.4753 5.62467 14.8135 5.62467 14.167Z" stroke="#4B4E4E" stroke-width="0.3"/>
<path d="M16.0558 11.5331C16.1298 11.1959 16.4631 10.9826 16.8002 11.0565C17.6018 11.2323 18.3241 11.5498 18.8603 11.9886C19.3961 12.427 19.7913 13.0297 19.7913 13.7503C19.7913 14.471 19.3961 15.0736 18.8603 15.5121C18.3241 15.9509 17.6018 16.2684 16.8002 16.4442C16.4631 16.5181 16.1298 16.3047 16.0558 15.9675C15.9819 15.6304 16.1953 15.2971 16.5325 15.2232C17.1928 15.0784 17.7205 14.8296 18.0687 14.5447C18.4175 14.2593 18.5413 13.9806 18.5413 13.7503C18.5413 13.5201 18.4175 13.2414 18.0687 12.956C17.7205 12.671 17.1928 12.4223 16.5325 12.2775C16.1953 12.2035 15.9819 11.8703 16.0558 11.5331Z" stroke="#4B4E4E" stroke-width="0.3"/>
<path d="M3.19913 11.0565C3.5363 10.9826 3.86956 11.1959 3.9435 11.5331C4.01744 11.8703 3.80405 12.2035 3.46689 12.2775C2.80658 12.4223 2.27888 12.671 1.93061 12.956C1.58186 13.2414 1.45801 13.5201 1.45801 13.7503C1.45801 13.9806 1.58186 14.2593 1.93061 14.5447C2.27888 14.8296 2.80658 15.0784 3.46689 15.2232C3.80405 15.2971 4.01744 15.6304 3.9435 15.9675C3.86956 16.3047 3.5363 16.5181 3.19913 16.4442C2.39756 16.2684 1.67526 15.9509 1.139 15.5121C0.603215 15.0736 0.208008 14.471 0.208008 13.7503C0.208008 13.0297 0.603215 12.427 1.139 11.9886C1.67526 11.5498 2.39756 11.2323 3.19913 11.0565Z" stroke="#4B4E4E" stroke-width="0.3"/>
</svg>
