<svg width="20" height="20" viewBox="0 0 20 20" fill="none" xmlns="http://www.w3.org/2000/svg">
<g clip-path="url(#clip0_9695_13029)">
<path fill-rule="evenodd" clip-rule="evenodd" d="M9.58366 2.29199C5.55658 2.29199 2.29199 5.55658 2.29199 9.58366C2.29199 13.6107 5.55658 16.8753 9.58366 16.8753C13.6107 16.8753 16.8753 13.6107 16.8753 9.58366C16.8753 5.55658 13.6107 2.29199 9.58366 2.29199ZM1.04199 9.58366C1.04199 4.86623 4.86623 1.04199 9.58366 1.04199C14.3011 1.04199 18.1253 4.86623 18.1253 9.58366C18.1253 11.7174 17.3429 13.6684 16.0494 15.1655L18.7756 17.8917C19.0197 18.1358 19.0197 18.5315 18.7756 18.7756C18.5315 19.0197 18.1358 19.0197 17.8917 18.7756L15.1655 16.0494C13.6684 17.3429 11.7174 18.1253 9.58366 18.1253C4.86623 18.1253 1.04199 14.3011 1.04199 9.58366Z" fill="#4B4E4E" stroke="#4B4E4E" stroke-width="0.3" stroke-linecap="round"/>
</g>
<defs>
<clipPath id="clip0_9695_13029">
<rect width="20" height="20" fill="white"/>
</clipPath>
</defs>
</svg>
