<svg width="20" height="20" viewBox="0 0 20 20" fill="none" xmlns="http://www.w3.org/2000/svg">
<path fill-rule="evenodd" clip-rule="evenodd" d="M10.0003 1.04199C7.8142 1.04199 6.04199 2.8142 6.04199 5.00033C6.04199 7.18645 7.8142 8.95866 10.0003 8.95866C12.1865 8.95866 13.9587 7.18645 13.9587 5.00033C13.9587 2.8142 12.1865 1.04199 10.0003 1.04199ZM7.29199 5.00033C7.29199 3.50455 8.50455 2.29199 10.0003 2.29199C11.4961 2.29199 12.7087 3.50455 12.7087 5.00033C12.7087 6.4961 11.4961 7.70866 10.0003 7.70866C8.50455 7.70866 7.29199 6.4961 7.29199 5.00033Z" fill="#4B4E4E"/>
<path fill-rule="evenodd" clip-rule="evenodd" d="M10.0003 10.2087C8.30088 10.2087 6.73159 10.601 5.56545 11.2673C4.41699 11.9236 3.54199 12.9254 3.54199 14.167C3.54199 15.4085 4.41699 16.4104 5.56545 17.0667C6.73159 17.733 8.30088 18.1253 10.0003 18.1253C11.6998 18.1253 13.2691 17.733 14.4352 17.0667C15.5837 16.4104 16.4587 15.4085 16.4587 14.167C16.4587 12.9254 15.5837 11.9236 14.4352 11.2673C13.2691 10.601 11.6998 10.2087 10.0003 10.2087ZM4.79199 14.167C4.79199 13.5676 5.22283 12.9028 6.18562 12.3526C7.13073 11.8126 8.47811 11.4587 10.0003 11.4587C11.5225 11.4587 12.8699 11.8126 13.815 12.3526C14.7778 12.9028 15.2087 13.5676 15.2087 14.167C15.2087 14.7664 14.7778 15.4312 13.815 15.9814C12.8699 16.5214 11.5225 16.8753 10.0003 16.8753C8.47811 16.8753 7.13073 16.5214 6.18562 15.9814C5.22283 15.4312 4.79199 14.7664 4.79199 14.167Z" fill="#4B4E4E"/>
<path fill-rule="evenodd" clip-rule="evenodd" d="M10.0003 1.04199C7.8142 1.04199 6.04199 2.8142 6.04199 5.00033C6.04199 7.18645 7.8142 8.95866 10.0003 8.95866C12.1865 8.95866 13.9587 7.18645 13.9587 5.00033C13.9587 2.8142 12.1865 1.04199 10.0003 1.04199ZM7.29199 5.00033C7.29199 3.50455 8.50455 2.29199 10.0003 2.29199C11.4961 2.29199 12.7087 3.50455 12.7087 5.00033C12.7087 6.4961 11.4961 7.70866 10.0003 7.70866C8.50455 7.70866 7.29199 6.4961 7.29199 5.00033Z" stroke="#4B4E4E" stroke-width="0.3"/>
<path fill-rule="evenodd" clip-rule="evenodd" d="M10.0003 10.2087C8.30088 10.2087 6.73159 10.601 5.56545 11.2673C4.41699 11.9236 3.54199 12.9254 3.54199 14.167C3.54199 15.4085 4.41699 16.4104 5.56545 17.0667C6.73159 17.733 8.30088 18.1253 10.0003 18.1253C11.6998 18.1253 13.2691 17.733 14.4352 17.0667C15.5837 16.4104 16.4587 15.4085 16.4587 14.167C16.4587 12.9254 15.5837 11.9236 14.4352 11.2673C13.2691 10.601 11.6998 10.2087 10.0003 10.2087ZM4.79199 14.167C4.79199 13.5676 5.22283 12.9028 6.18562 12.3526C7.13073 11.8126 8.47811 11.4587 10.0003 11.4587C11.5225 11.4587 12.8699 11.8126 13.815 12.3526C14.7778 12.9028 15.2087 13.5676 15.2087 14.167C15.2087 14.7664 14.7778 15.4312 13.815 15.9814C12.8699 16.5214 11.5225 16.8753 10.0003 16.8753C8.47811 16.8753 7.13073 16.5214 6.18562 15.9814C5.22283 15.4312 4.79199 14.7664 4.79199 14.167Z" stroke="#4B4E4E" stroke-width="0.3"/>
</svg>
